onset_sec,duration_sec,pitch,velocity,track,channel,id
0.79270834,0.6145833,64,60,0,1,1
0.84791666,0.5395833,67,74,0,1,2
0.921875,0.060416665,48,65,0,1,3
0.92291665,0.49166667,72,85,0,1,4
1.0708333,0.16041666,60,67,0,1,5
1.1989583,0.05,59,63,0,1,6
1.3291667,0.051041666,60,56,0,1,7
1.4583334,0.21979167,48,62,0,1,8
1.75625,0.048958335,72,56,0,1,9
1.871875,0.061458334,71,61,0,1,10
1.9875,0.115625,74,72,0,1,11
2.1041667,0.08229167,72,72,0,1,12
2.2197917,0.060416665,76,75,0,1,13
2.3322916,0.12083333,74,76,0,1,14
2.4447916,0.104166664,77,82,0,1,15
2.559375,0.11145833,76,79,0,1,16
2.6770833,0.14270833,79,72,0,1,17
2.759375,0.123958334,77,73,0,1,18
2.8947916,0.07395833,69,73,0,1,19
2.9333334,0.35416666,74,75,0,1,20
3.021875,0.35625,41,44,0,1,21
3.0239584,0.27291667,77,72,0,1,22
3.0385416,0.28333333,53,35,0,1,23
3.04375,0.40833333,81,67,0,1,24
3.56875,0.128125,79,61,0,1,25
3.7,0.071875,77,54,0,1,26
3.8114583,0.046875,76,63,0,1,27
3.921875,0.059375,74,67,0,1,28
4.032292,0.038541667,72,62,0,1,29
4.09375,0.07604167,74,65,0,1,30
4.1739583,0.045833334,72,66,0,1,31
4.24375,0.040625,71,58,0,1,32
4.3145833,0.045833334,52,60,0,1,33
4.3375,0.1375,72,72,0,1,34
4.459375,0.10625,76,73,0,1,35
4.5875,0.121875,74,72,0,1,36
4.5958333,0.0375,53,53,0,1,37
4.7166667,0.11145833,77,70,0,1,38
4.835417,0.045833334,55,43,0,1,39
4.840625,0.084375,71,65,0,1,40
4.945833,0.045833334,74,72,0,1,41
5.1135416,0.44895834,64,79,0,1,42
5.1302085,0.051041666,48,65,0,1,43
5.1604166,0.390625,67,71,0,1,44
5.210417,0.36875,72,84,0,1,45
5.278125,0.054166667,60,70,0,1,46
5.40625,0.04375,59,76,0,1,47
5.525,0.040625,60,70,0,1,48
5.647917,0.17083333,48,68,0,1,49
5.715625,0.103125,47,12,0,1,50
5.9479165,0.06875,72,67,0,1,51
6.0625,0.0875,71,70,0,1,52
6.1833334,0.11875,74,76,0,1,53
6.3,0.1,72,78,0,1,54
6.414583,0.052083332,76,76,0,1,55
6.528125,0.11354167,74,83,0,1,56
6.646875,0.09375,77,82,0,1,57
6.7458334,0.12708333,76,82,0,1,58
6.8708334,0.094791666,79,77,0,1,59
6.9572916,0.12604167,77,73,0,1,60
7.0979166,0.078125,69,69,0,1,61
7.155208,0.33541667,74,78,0,1,62
7.2375,0.27083334,77,68,0,1,63
7.2479167,0.4125,81,74,0,1,64
7.248958,0.28958333,41,50,0,1,65
7.259375,0.3,53,44,0,1,66
7.7916665,0.061458334,79,59,0,1,67
7.922917,0.0625,77,68,0,1,68
8.042708,0.058333334,76,67,0,1,69
8.159375,0.061458334,74,67,0,1,70
8.272917,0.042708334,72,66,0,1,71
8.3375,0.065625,74,68,0,1,72
8.414583,0.045833334,72,71,0,1,73
8.477083,0.048958335,71,59,0,1,74
8.579166,0.092708334,72,75,0,1,75
8.583333,0.042708334,52,51,0,1,76
8.703125,0.11770833,76,70,0,1,77
8.836458,0.13958333,74,63,0,1,78
8.863542,0.075,53,49,0,1,79
8.973958,0.12916666,77,55,0,1,80
9.084375,0.067708336,71,59,0,1,81
9.101042,0.046875,55,39,0,1,82
9.220834,0.11354167,74,64,0,1,83
9.332292,0.1375,60,53,0,1,84
9.34375,0.042708334,72,64,0,1,85
9.479167,0.044791665,67,49,0,1,86
9.589583,0.13125,64,55,0,1,87
9.602083,0.052083332,74,55,0,1,88
9.671875,0.06458333,72,66,0,1,89
9.720834,0.061458334,67,39,0,1,90
9.746875,0.088541664,71,66,0,1,91
9.833333,0.040625,72,75,0,1,92
9.852083,0.07604167,60,55,0,1,93
9.982291,0.071875,67,47,0,1,94
10.082292,0.034375,76,75,0,1,95
10.089583,0.046875,64,52,0,1,96
10.215625,0.075,67,49,0,1,97
10.340625,0.38645834,73,78,0,1,98
10.369792,0.16354166,59,48,0,1,99
10.494792,0.07604167,67,44,0,1,100
10.617708,0.0875,62,43,0,1,101
10.736459,0.079166666,67,42,0,1,102
10.875,0.16145833,74,52,0,1,103
10.904166,0.20520833,59,26,0,1,104
11.019792,0.09791667,67,35,0,1,105
11.14375,0.059375,62,39,0,1,106
11.257292,0.058333334,67,47,0,1,107
11.372916,0.10208333,59,44,0,1,108
11.463542,0.07604167,67,46,0,1,109
11.561459,0.078125,76,65,0,1,110
11.596875,0.06979167,62,53,0,1,111
11.632292,0.059375,74,66,0,1,112
11.696875,0.08020833,73,76,0,1,113
11.697917,0.06666667,67,50,0,1,114
11.802083,0.05625,74,83,0,1,115
11.815625,0.178125,59,57,0,1,116
11.9375,0.075,67,51,0,1,117
12.05,0.039583333,77,81,0,1,118
12.0625,0.065625,62,53,0,1,119
12.2,0.06458333,67,46,0,1,120
12.309375,0.471875,75,69,0,1,121
12.345834,0.083333336,60,44,0,1,122
12.457292,0.06875,67,37,0,1,123
12.576041,0.13958333,64,42,0,1,124
12.691667,0.08125,67,39,0,1,125
12.809375,0.16770834,76,56,0,1,126
12.839583,0.15625,60,37,0,1,127
12.951041,0.077083334,67,39,0,1,128
13.06875,0.084375,64,47,0,1,129
13.188541,0.083333336,67,41,0,1,130
13.309375,0.084375,60,50,0,1,131
13.43125,0.0625,67,42,0,1,132
13.542708,0.048958335,79,61,0,1,133
13.552083,0.060416665,64,51,0,1,134
13.6125,0.044791665,79,59,0,1,135
13.676042,0.06458333,67,38,0,1,136
13.677083,0.0375,78,63,0,1,137
13.757292,0.07083333,79,70,0,1,138
13.811459,0.07604167,60,51,0,1,139
13.833333,0.034375,84,69,0,1,140
13.99375,0.0875,67,18,0,1,141
14.071875,0.071875,64,44,0,1,142
14.088542,0.028125,82,50,0,1,143
14.195833,0.060416665,67,49,0,1,144
14.327084,0.346875,80,59,0,1,145
14.341666,0.09583333,60,48,0,1,146
14.501041,0.065625,69,38,0,1,147
14.591666,0.083333336,65,42,0,1,148
14.717709,0.07604167,69,44,0,1,149
14.859375,0.146875,81,53,0,1,150
14.860416,0.115625,60,44,0,1,151
14.980208,0.060416665,69,39,0,1,152
15.104167,0.057291668,65,40,0,1,153
15.2,0.13125,69,53,0,1,154
15.332292,0.08541667,81,82,0,1,155
15.355208,0.09791667,60,52,0,1,156
15.410417,0.178125,83,77,0,1,157
15.484375,0.0875,69,57,0,1,158
15.49375,0.39895833,84,78,0,1,159
15.620833,0.06458333,65,62,0,1,160
15.745833,0.0875,69,56,0,1,161
15.855208,0.13958333,83,84,0,1,162
15.877084,0.09791667,60,57,0,1,163
15.967709,0.123958334,81,81,0,1,164
15.989583,0.052083332,69,55,0,1,165
16.086458,0.079166666,79,85,0,1,166
16.095833,0.06875,65,58,0,1,167
16.208334,0.07395833,77,79,0,1,168
16.210417,0.055208333,69,57,0,1,169
16.329166,0.48854166,78,82,0,1,170
16.345833,0.1125,60,52,0,1,171
16.495832,0.0625,67,31,0,1,172
16.585417,0.06458333,64,48,0,1,173
16.691668,0.092708334,67,53,0,1,174
16.85,0.42395833,79,64,0,1,175
16.8625,0.16458334,60,51,0,1,176
16.9625,0.119791664,67,51,0,1,177
17.095833,0.05,64,56,0,1,178
17.219791,0.040625,67,63,0,1,179
17.339582,0.08645833,52,69,0,1,180
17.484375,0.060416665,55,53,0,1,181
17.605207,0.05,60,71,0,1,182
17.74375,0.038541667,64,55,0,1,183
17.84375,0.08645833,67,56,0,1,184
18.001041,0.08020833,72,61,0,1,185
18.10625,0.042708334,76,71,0,1,186
18.232292,0.046875,79,75,0,1,187
18.35,0.094791666,53,58,0,1,188
18.467709,0.10729167,57,59,0,1,189
18.592709,0.057291668,60,63,0,1,190
18.716667,0.038541667,65,66,0,1,191
18.859375,0.040625,69,63,0,1,192
18.967709,0.078125,72,70,0,1,193
19.105207,0.055208333,77,66,0,1,194
19.211458,0.042708334,81,71,0,1,195
19.345833,0.16770834,81,82,0,1,196
19.471874,0.14791666,79,75,0,1,197
19.586458,0.040625,60,54,0,1,198
19.591667,0.044791665,55,51,0,1,199
19.591667,0.10729167,77,76,0,1,200
19.70625,0.042708334,76,75,0,1,201
19.834375,0.077083334,59,61,0,1,202
19.841667,0.084375,76,79,0,1,203
19.865625,0.046875,55,40,0,1,204
19.961458,0.067708336,74,81,0,1,205
20.084375,0.071875,76,83,0,1,206
20.088541,0.054166667,55,35,0,1,207
20.108334,0.047916666,62,52,0,1,208
20.213541,0.05625,77,81,0,1,209
20.364584,0.578125,77,77,0,1,210
20.388542,0.29166666,62,46,0,1,211
20.389584,0.31666666,56,49,0,1,212
21.034374,0.25520834,76,45,0,1,213
21.044792,0.24895833,60,36,0,1,214
21.05,0.21458334,57,33,0,1,215
21.614584,0.6197917,52,48,0,1,216
21.763542,0.5364583,55,43,0,1,217
21.904167,0.42291668,60,51,0,1,218
22.036459,0.29479167,64,51,0,1,219
22.165625,0.061458334,67,53,0,1,220
22.311459,0.1125,72,56,0,1,221
22.442709,0.10729167,76,61,0,1,222
22.56875,0.08229167,79,66,0,1,223
22.696875,0.54270834,53,56,0,1,224
22.835417,0.5395833,57,57,0,1,225
22.978125,0.359375,60,57,0,1,226
23.104166,0.23333333,65,64,0,1,227
23.242708,0.09375,69,63,0,1,228
23.375,0.103125,72,66,0,1,229
23.517708,0.06666667,77,71,0,1,230
23.651041,0.036458332,81,67,0,1,231
23.771875,0.190625,81,67,0,1,232
23.913542,0.16145833,79,77,0,1,233
24.035418,0.12291667,77,80,0,1,234
24.045834,0.055208333,60,54,0,1,235
24.054167,0.054166667,55,51,0,1,236
24.15625,0.052083332,76,76,0,1,237
24.297916,0.153125,76,80,0,1,238
24.302084,0.110416666,59,64,0,1,239
24.315624,0.047916666,55,57,0,1,240
24.429167,0.1125,74,76,0,1,241
24.546875,0.084375,72,75,0,1,242
24.559376,0.07604167,55,50,0,1,243
24.5625,0.0875,65,63,0,1,244
24.672916,0.067708336,71,75,0,1,245
24.798958,0.0375,64,64,0,1,246
24.8,0.03125,60,72,0,1,247
24.805208,0.42708334,72,87,0,1,248
24.945833,0.06666667,60,54,0,1,249
25.059376,0.078125,59,54,0,1,250
25.2,0.05,60,69,0,1,251
25.3375,0.36041668,76,87,0,1,252
25.338541,0.039583333,47,63,0,1,253
25.339582,0.39791667,70,81,0,1,254
25.340626,0.44270834,67,80,0,1,255
25.459375,0.05,48,77,0,1,256
25.579166,0.046875,47,70,0,1,257
25.69375,0.058333334,48,75,0,1,258
25.829166,0.042708334,36,85,0,1,259
26.125,0.18333334,77,72,0,1,260
26.130209,0.14166667,69,72,0,1,261
26.397917,0.044791665,65,71,0,1,262
26.398958,0.055208333,69,76,0,1,263
26.642708,0.0625,71,74,0,1,264
26.64375,0.0375,62,67,0,1,265
26.711458,0.065625,72,73,0,1,266
26.795834,0.061458334,71,69,0,1,267
26.841667,0.10104167,69,75,0,1,268
26.948957,0.039583333,71,67,0,1,269
27.042707,0.03125,59,80,0,1,270
27.05,0.48854166,72,85,0,1,271
27.070833,0.24270834,64,82,0,1,272
27.203125,0.038541667,60,69,0,1,273
27.329166,0.040625,59,78,0,1,274
27.455208,0.04375,60,65,0,1,275
27.592709,0.3625,76,89,0,1,276
27.594791,0.05,47,74,0,1,277
27.597918,0.43854168,70,82,0,1,278
27.603125,0.45625,67,76,0,1,279
27.634375,0.094791666,48,69,0,1,280
27.729166,0.05,48,50,0,1,281
27.841667,0.04375,47,78,0,1,282
27.9625,0.05625,48,76,0,1,283
28.097918,0.0375,36,83,0,1,284
28.4,0.16875,77,74,0,1,285
28.408333,0.153125,69,66,0,1,286
28.676043,0.039583333,69,71,0,1,287
28.677084,0.040625,65,62,0,1,288
28.932291,0.034375,71,62,0,1,289
28.933332,0.040625,62,62,0,1,290
28.990625,0.039583333,72,62,0,1,291
29.0875,0.039583333,71,64,0,1,292
29.29375,0.0375,72,61,0,1,293
29.307291,0.25416666,64,46,0,1,294
29.366667,0.052083332,74,61,0,1,295
29.429167,0.06979167,72,64,0,1,296
29.519793,0.047916666,71,56,0,1,297
29.60625,0.22395833,55,37,0,1,298
29.610416,0.054166667,72,60,0,1,299
29.7125,0.058333334,76,66,0,1,300
29.832293,0.05,74,61,0,1,301
29.854166,0.23333333,59,61,0,1,302
29.913542,0.06875,76,68,0,1,303
29.985416,0.054166667,74,67,0,1,304
30.057291,0.072916664,72,66,0,1,305
30.115625,0.21770833,55,52,0,1,306
30.135416,0.08229167,74,71,0,1,307
30.2375,0.067708336,77,74,0,1,308
30.348959,0.067708336,76,72,0,1,309
30.359375,0.21979167,60,57,0,1,310
30.4375,0.07395833,77,73,0,1,311
30.5125,0.0625,76,71,0,1,312
30.580208,0.08229167,74,69,0,1,313
30.615625,0.18229167,55,51,0,1,314
30.659374,0.078125,76,72,0,1,315
30.765625,0.067708336,79,76,0,1,316
30.877083,0.06979167,77,74,0,1,317
30.886457,0.23229167,62,56,0,1,318
30.95625,0.1,79,78,0,1,319
31.048958,0.04375,77,68,0,1,320
31.098959,0.0875,76,66,0,1,321
31.158333,0.225,55,53,0,1,322
31.186459,0.09166667,77,73,0,1,323
31.288542,0.06666667,81,79,0,1,324
31.430208,0.146875,64,54,0,1,325
31.432291,0.11770833,79,71,0,1,326
31.54375,0.13229166,84,82,0,1,327
31.670834,0.11875,88,82,0,1,328
31.795834,0.13333334,83,84,0,1,329
31.913542,0.08020833,84,87,0,1,330
32.026043,0.077083334,79,79,0,1,331
32.153126,0.11145833,62,58,0,1,332
32.15625,0.0625,81,67,0,1,333
32.164585,0.04375,53,48,0,1,334
32.276043,0.048958335,77,74,0,1,335
32.40729,0.08125,76,74,0,1,336
32.433334,0.6354167,55,43,0,1,337
32.446877,0.225,60,41,0,1,338
32.490623,0.08125,77,69,0,1,339
32.59375,0.08645833,76,61,0,1,340
32.7375,0.38645834,59,39,0,1,341
32.755207,0.34583333,74,49,0,1,342
33.78229,0.06458333,73,51,0,1,343
33.821877,0.48125,74,51,0,1,344
34.433334,0.045833334,73,49,0,1,345
34.465626,0.19583334,74,58,0,1,346
34.96146,0.052083332,71,54,0,1,347
35.015625,0.06979167,74,62,0,1,348
35.071877,0.096875,80,65,0,1,349
35.172916,1.2083334,83,56,0,1,350
35.26979,0.21145834,40,49,0,1,351
35.44375,0.16041666,44,54,0,1,352
35.590626,0.046875,47,56,0,1,353
35.701042,0.05625,52,62,0,1,354
35.846874,0.27604166,56,51,0,1,355
35.989582,0.26041666,59,45,0,1,356
36.120834,0.083333336,64,47,0,1,357
36.244793,0.315625,52,52,0,1,358
36.402084,0.13541667,81,62,0,1,359
36.514584,0.140625,80,65,0,1,360
36.645832,0.071875,77,65,0,1,361
36.763542,0.065625,76,72,0,1,362
36.88646,0.15833333,74,77,0,1,363
37.005207,0.12083333,72,75,0,1,364
37.02396,0.045833334,56,53,0,1,365
37.029167,0.041666668,52,48,0,1,366
37.129166,0.06979167,71,76,0,1,367
37.272915,0.13125,74,79,0,1,368
37.284374,0.56458336,57,52,0,1,369
37.3,0.66041666,45,46,0,1,370
37.391666,0.108333334,72,73,0,1,371
37.51875,0.08645833,71,67,0,1,372
37.641666,0.096875,72,64,0,1,373
37.759377,0.090625,71,64,0,1,374
37.896873,0.08020833,72,60,0,1,375
38.033333,0.038541667,74,55,0,1,376
38.133335,0.06979167,72,61,0,1,377
38.302082,0.042708334,71,55,0,1,378
38.341667,0.425,72,53,0,1,379
38.922916,0.038541667,71,49,0,1,380
38.978127,0.11666667,72,50,0,1,381
39.403126,0.067708336,69,56,0,1,382
39.470833,0.075,72,57,0,1,383
39.522915,0.10625,78,62,0,1,384
39.63229,1.1458334,81,58,0,1,385
39.7125,0.115625,38,46,0,1,386
39.852085,0.190625,42,55,0,1,387
39.98021,0.047916666,45,56,0,1,388
40.10625,0.05625,50,52,0,1,389
40.240623,0.2375,54,54,0,1,390
40.384377,0.14166667,57,59,0,1,391
40.520832,0.119791664,62,56,0,1,392
40.66354,0.25104168,50,49,0,1,393
40.783333,0.15520833,79,58,0,1,394
40.915627,0.14375,78,60,0,1,395
41.04375,0.08645833,76,61,0,1,396
41.172916,0.078125,74,68,0,1,397
41.303123,0.146875,72,72,0,1,398
41.43125,0.11145833,71,68,0,1,399
41.43854,0.06875,54,49,0,1,400
41.454166,0.052083332,50,35,0,1,401
41.56146,0.084375,69,66,0,1,402
41.69375,0.5125,71,67,0,1,403
41.727085,0.05,55,35,0,1,404
41.847916,0.084375,67,48,0,1,405
41.997917,0.08020833,66,47,0,1,406
42.125,0.077083334,67,37,0,1,407
42.26875,0.30625,59,28,0,1,408
42.270832,0.039583333,74,59,0,1,409
42.410416,0.084375,67,35,0,1,410
42.534374,0.321875,74,65,0,1,411
42.558334,0.13125,66,39,0,1,412
42.708332,0.11666667,67,31,0,1,413
42.85,0.28333333,76,69,0,1,414
42.877083,0.23645833,60,36,0,1,415
42.995834,0.09375,67,34,0,1,416
43.119793,0.119791664,66,52,0,1,417
43.26979,0.090625,67,45,0,1,418
43.285416,0.134375,78,64,0,1,419
43.409374,0.19375,81,75,0,1,420
43.428123,0.1875,60,40,0,1,421
43.528126,0.088541664,67,41,0,1,422
43.54375,0.153125,79,71,0,1,423
43.64896,0.171875,78,73,0,1,424
43.658333,0.11770833,66,44,0,1,425
43.770832,0.09375,67,44,0,1,426
43.78125,0.11666667,76,69,0,1,427
43.921875,0.123958334,74,64,0,1,428
43.92604,0.1875,59,41,0,1,429
44.04271,0.075,67,34,0,1,430
44.152084,0.110416666,66,51,0,1,431
44.297916,0.065625,67,53,0,1,432
44.44375,0.072916664,55,51,0,1,433
44.472916,0.090625,74,65,0,1,434
44.58229,0.07604167,67,48,0,1,435
44.589584,0.11354167,71,66,0,1,436
44.710415,0.0875,74,70,0,1,437
44.728127,0.09791667,66,51,0,1,438
44.83125,0.109375,71,71,0,1,439
44.853127,0.052083332,67,55,0,1,440
44.971874,0.123958334,76,72,0,1,441
44.997917,0.12916666,60,53,0,1,442
45.134377,0.05625,67,50,0,1,443
45.247917,0.11666667,66,56,0,1,444
45.38125,0.125,78,67,0,1,445
45.402084,0.052083332,67,51,0,1,446
45.505207,0.178125,81,72,0,1,447
45.533333,0.10729167,60,51,0,1,448
45.642708,0.14270833,79,71,0,1,449
45.645832,0.1125,67,49,0,1,450
45.7625,0.14166667,78,74,0,1,451
45.770832,0.10625,66,59,0,1,452
45.891666,0.0875,76,68,0,1,453
45.90625,0.06458333,67,55,0,1,454
46.033333,0.07604167,74,62,0,1,455
46.040627,0.19166666,59,47,0,1,456
46.31354,0.17604166,83,71,0,1,457
46.440624,0.15104167,81,70,0,1,458
46.559376,0.12291667,79,75,0,1,459
46.68125,0.08645833,78,77,0,1,460
46.808334,0.077083334,76,74,0,1,461
46.829166,0.20520833,68,49,0,1,462
46.9375,0.053125,74,72,0,1,463
47.040627,0.0625,72,73,0,1,464
47.06875,0.13541667,69,59,0,1,465
47.10625,0.084375,74,73,0,1,466
47.19375,0.039583333,72,73,0,1,467
47.346874,0.16875,81,78,0,1,468
47.48021,0.13645834,79,71,0,1,469
47.59375,0.123958334,78,73,0,1,470
47.721874,0.060416665,76,70,0,1,471
47.853127,0.07083333,74,73,0,1,472
47.864582,0.23854166,66,56,0,1,473
47.983334,0.05,72,76,0,1,474
48.095833,0.05625,71,74,0,1,475
48.11354,0.18541667,67,61,0,1,476
48.147915,0.09583333,72,74,0,1,477
48.239582,0.046875,71,71,0,1,478
48.385418,0.15729167,79,76,0,1,479
48.505207,0.18125,78,76,0,1,480
48.641666,0.12291667,76,71,0,1,481
48.767708,0.08541667,74,74,0,1,482
48.9,0.067708336,72,70,0,1,483
48.904167,0.16041666,64,55,0,1,484
49.01875,0.06875,71,74,0,1,485
49.121876,0.07604167,69,72,0,1,486
49.14896,0.30729166,60,60,0,1,487
49.19375,0.09375,71,75,0,1,488
49.289585,0.06458333,69,70,0,1,489
49.420834,0.14791666,76,78,0,1,490
49.541668,0.15104167,74,72,0,1,491
49.66771,0.123958334,72,76,0,1,492
49.789585,0.063541666,71,76,0,1,493
49.921875,0.07083333,69,78,0,1,494
49.93854,0.22395833,61,61,0,1,495
50.041668,0.09166667,67,78,0,1,496
50.153126,0.1375,62,66,0,1,497
50.15521,0.029166667,66,76,0,1,498
50.30625,0.05625,74,79,0,1,499
50.441666,0.17708333,83,82,0,1,500
50.570835,0.14791666,81,81,0,1,501
50.69479,0.067708336,79,81,0,1,502
50.808334,0.07604167,78,81,0,1,503
50.939583,0.065625,76,81,0,1,504
50.9875,0.228125,68,48,0,1,505
51.07396,0.0375,74,82,0,1,506
51.190624,0.063541666,74,94,0,1,507
51.215626,0.16979167,69,64,0,1,508
51.32396,0.05,73,78,0,1,509
51.451042,0.060416665,81,79,0,1,510
51.596874,0.03125,79,69,0,1,511
51.725,0.0375,78,67,0,1,512
51.84479,0.034375,76,73,0,1,513
51.9625,0.04375,74,74,0,1,514
51.963543,0.2375,66,62,0,1,515
52.076042,0.052083332,72,86,0,1,516
52.209373,0.065625,72,90,0,1,517
52.228127,0.25625,67,58,0,1,518
52.348957,0.052083332,71,73,0,1,519
52.472916,0.15,79,75,0,1,520
52.604168,0.16458334,78,73,0,1,521
52.728127,0.128125,76,70,0,1,522
52.8625,0.072916664,74,76,0,1,523
52.95,0.061458334,64,49,0,1,524
52.990623,0.06979167,72,71,0,1,525
53.115623,0.075,71,70,0,1,526
53.26875,0.5416667,69,62,0,1,527
53.296875,0.67291665,60,34,0,1,528
53.471874,0.063541666,67,40,0,1,529
53.60104,0.06666667,66,47,0,1,530
53.74271,0.060416665,67,52,0,1,531
53.879166,0.05625,71,68,0,1,532
53.902084,0.39895833,62,49,0,1,533
53.978127,0.044791665,72,61,0,1,534
54.05104,0.078125,67,53,0,1,535
54.064583,0.060416665,71,66,0,1,536
54.134377,0.065625,72,66,0,1,537
54.196877,0.15104167,66,51,0,1,538
54.208332,0.08645833,71,62,0,1,539
54.28854,0.06979167,72,66,0,1,540
54.34479,0.2125,67,52,0,1,541
54.35625,0.083333336,71,46,0,1,542
54.44479,0.055208333,69,65,0,1,543
54.51875,0.094791666,71,51,0,1,544
54.619793,0.21666667,64,41,0,1,545
54.633335,0.8625,72,62,0,1,546
54.85,0.06875,67,33,0,1,547
54.978127,0.14166667,66,42,0,1,548
55.098957,0.078125,67,39,0,1,549
55.220833,0.1875,62,54,0,1,550
55.357292,0.072916664,67,45,0,1,551
55.48021,0.159375,66,49,0,1,552
55.4875,0.22083333,71,63,0,1,553
55.610416,0.065625,67,47,0,1,554
55.7375,0.041666668,69,67,0,1,555
55.739582,0.18333334,60,56,0,1,556
55.866665,0.05,67,57,0,1,557
55.98021,0.09375,68,66,0,1,558
55.99896,0.14895834,66,66,0,1,559
56.004166,0.24479167,69,69,0,1,560
56.122917,0.06666667,67,57,0,1,561
56.25,0.06666667,71,74,0,1,562
56.260418,0.10625,62,54,0,1,563
56.36354,0.08645833,67,59,0,1,564
56.49896,0.05,70,62,0,1,565
56.50104,0.065625,71,80,0,1,566
56.5125,0.14375,66,64,0,1,567
56.629166,0.109375,67,59,0,1,568
56.77396,0.05625,71,84,0,1,569
56.78021,0.1375,64,59,0,1,570
56.88646,0.13125,74,78,0,1,571
56.908333,0.096875,67,58,0,1,572
57.014584,0.59166664,72,80,0,1,573
57.035416,0.11354167,66,58,0,1,574
57.165627,0.104166664,67,47,0,1,575
57.295834,0.115625,62,46,0,1,576
57.422916,0.060416665,67,51,0,1,577
57.55104,0.051041666,71,66,0,1,578
57.56354,0.125,66,52,0,1,579
57.69896,0.040625,67,55,0,1,580
57.83229,0.054166667,68,47,0,1,581
57.835415,0.9447917,69,57,0,1,582
58.121876,0.18541667,60,42,0,1,583
58.128124,0.28020832,64,34,0,1,584
58.396873,0.36145833,59,45,0,1,585
58.396873,0.25208333,63,42,0,1,586
58.68125,0.21145834,64,42,0,1,587
58.683334,0.184375,60,42,0,1,588
58.933334,0.047916666,71,80,0,1,589
59.027084,0.953125,72,84,0,1,590
59.208332,0.25416666,64,53,0,1,591
59.210415,0.19895834,60,51,0,1,592
59.472916,0.228125,63,51,0,1,593
59.49271,0.140625,59,42,0,1,594
59.634377,0.20416667,59,3,0,1,595
59.765625,0.13125,64,47,0,1,596
59.76875,0.09375,60,48,0,1,597
60.01875,0.05625,75,57,0,1,598
60.026043,0.6625,76,63,0,1,599
60.30625,0.20208333,60,39,0,1,601
60.30625,0.24270834,64,40,0,1,600
60.553123,0.23020834,59,50,0,1,602
60.591667,0.18958333,63,36,0,1,603
60.829166,0.042708334,64,53,0,1,604
60.85,0.05625,60,27,0,1,605
61.084373,0.030208332,68,76,0,1,606
61.084373,0.029166667,69,78,0,1,607
61.352085,0.03125,71,69,0,1,608
61.354168,0.035416666,72,75,0,1,609
61.61354,0.044791665,76,62,0,1,610
61.61875,0.046875,75,46,0,1,611
61.895832,0.057291668,81,65,0,1,612
61.904167,0.041666668,80,54,0,1,613
62.146873,0.035416666,84,63,0,1,614
62.15625,0.039583333,83,56,0,1,615
62.4,0.058333334,81,73,0,1,616
62.411457,0.0375,80,57,0,1,617
62.670834,0.05,75,59,0,1,618
62.675,0.038541667,76,58,0,1,619
62.95,0.035416666,71,62,0,1,621
62.95,0.038541667,72,69,0,1,620
63.19479,0.055208333,71,75,0,1,622
63.21875,0.057291668,50,54,0,1,623
63.25729,0.08125,72,69,0,1,624
63.334373,0.88645834,74,76,0,1,625
63.35625,0.045833334,59,50,0,1,626
63.473957,0.058333334,55,54,0,1,627
63.58125,0.05625,59,52,0,1,628
63.753124,0.11354167,50,52,0,1,629
63.760418,0.14791666,72,65,0,1,630
63.869793,0.13229166,71,70,0,1,631
63.879166,0.063541666,59,52,0,1,632
64.0,0.09375,69,71,0,1,633
64.01875,0.059375,55,50,0,1,634
64.129166,0.17291667,67,67,0,1,635
64.13646,0.090625,59,53,0,1,636
64.31042,0.090625,50,45,0,1,637
64.342705,0.067708336,69,59,0,1,638
64.46562,0.038541667,71,54,0,1,639
64.48646,0.045833334,60,37,0,1,640
64.552086,0.048958335,69,63,0,1,641
64.60625,0.06458333,54,42,0,1,642
64.63646,0.05,71,58,0,1,643
64.714584,0.046875,60,39,0,1,644
64.71562,0.052083332,69,64,0,1,645
64.79583,0.048958335,71,62,0,1,646
64.85208,0.11875,50,50,0,1,647
64.873955,0.041666668,69,65,0,1,648
64.96354,0.058333334,60,41,0,1,649
64.96354,0.039583333,71,56,0,1,650
65.030205,0.046875,69,63,0,1,651
65.06979,0.051041666,54,53,0,1,652
65.083336,0.075,71,73,0,1,653
65.17812,0.054166667,69,67,0,1,654
65.19479,0.06979167,60,53,0,1,655
65.25833,0.058333334,67,54,0,1,656
65.333336,0.05,69,61,0,1,657
65.41563,0.23125,55,44,0,1,658
65.44063,0.13958333,67,64,0,1,659
65.56458,0.045833334,62,54,0,1,660
65.697914,0.042708334,59,55,0,1,661
65.71042,0.034375,79,62,0,1,662
65.813545,0.05,62,49,0,1,663
65.839584,0.042708334,79,68,0,1,664
65.96146,0.044791665,55,51,0,1,665
65.98333,0.109375,79,77,0,1,666
66.10521,0.11875,74,67,0,1,667
66.23646,0.06666667,71,70,0,1,668
66.37813,0.05,67,58,0,1,669
66.48333,0.034375,69,71,0,1,670
66.48646,0.26145834,54,56,0,1,671
66.63125,0.045833334,62,57,0,1,672
66.75729,0.060416665,81,79,0,1,673
66.76354,0.047916666,57,57,0,1,674
66.88854,0.044791665,81,74,0,1,675
66.89167,0.039583333,62,58,0,1,676
67.01771,0.16875,81,89,0,1,677
67.02396,0.063541666,54,66,0,1,678
67.14167,0.119791664,78,76,0,1,679
67.27292,0.047916666,74,74,0,1,680
67.4,0.075,69,70,0,1,681
67.52292,0.032291666,71,69,0,1,682
67.52917,0.15520833,55,64,0,1,683
67.64687,0.052083332,62,64,0,1,684
67.76667,0.07604167,83,84,0,1,685
67.78438,0.040625,59,63,0,1,686
67.910416,0.0375,83,72,0,1,687
67.91875,0.039583333,62,63,0,1,688
68.035416,0.15625,83,87,0,1,689
68.04896,0.046875,55,65,0,1,690
68.15833,0.09166667,79,79,0,1,691
68.29896,0.040625,74,72,0,1,692
68.425,0.0625,71,69,0,1,693
68.54792,0.22916667,52,64,0,1,694
68.55521,0.078125,75,77,0,1,695
68.56458,0.10729167,57,59,0,1,696
68.57083,0.083333336,48,54,0,1,697
68.69271,0.08020833,76,75,0,1,698
68.81458,0.0625,72,75,0,1,699
68.94063,0.05,69,70,0,1,700
69.07188,0.06875,71,85,0,1,701
69.075,0.08020833,57,68,0,1,702
69.07604,0.045833334,60,66,0,1,703
69.07917,0.5,50,66,0,1,704
69.2125,0.115625,72,82,0,1,705
69.31979,0.0875,69,71,0,1,706
69.44688,0.057291668,66,73,0,1,707
69.57083,0.039583333,59,69,0,1,708
69.57604,0.06458333,67,75,0,1,709
69.58125,0.041666668,55,69,0,1,710
69.71875,0.11770833,78,80,0,1,711
69.842705,0.14583333,79,88,0,1,712
69.97813,0.08958333,78,84,0,1,713
70.083336,0.060416665,43,67,0,1,714
70.10625,0.104166664,79,90,0,1,715
70.21562,0.071875,55,69,0,1,716
70.22708,0.077083334,74,76,0,1,717
70.36354,0.047916666,54,65,0,1,718
70.364586,0.041666668,71,71,0,1,719
70.4875,0.046875,67,78,0,1,720
70.49479,0.036458332,55,69,0,1,721
70.626045,0.039583333,54,73,0,1,722
70.62708,0.0375,69,78,0,1,723
70.76354,0.098958336,80,81,0,1,724
70.88438,0.134375,81,91,0,1,725
71.015625,0.083333336,80,82,0,1,726
71.13438,0.063541666,42,70,0,1,727
71.13854,0.0875,81,91,0,1,728
71.27604,0.0875,54,61,0,1,730
71.27604,0.1,78,81,0,1,729
71.39271,0.07395833,52,64,0,1,731
71.40417,0.063541666,74,81,0,1,732
71.52187,0.045833334,54,64,0,1,733
71.535416,0.065625,69,76,0,1,734
71.652084,0.035416666,55,64,0,1,735
71.666664,0.032291666,71,67,0,1,736
71.81458,0.125,82,77,0,1,737
71.92083,0.16666667,83,86,0,1,738
72.0625,0.08645833,82,87,0,1,739
72.18125,0.08020833,83,85,0,1,740
72.18437,0.047916666,43,66,0,1,741
72.311455,0.045833334,55,68,0,1,742
72.322914,0.061458334,79,76,0,1,743
72.44063,0.10208333,54,71,0,1,744
72.45417,0.036458332,74,74,0,1,745
72.53646,0.051041666,55,68,0,1,746
72.59062,0.046875,71,68,0,1,747
72.61979,0.22604166,48,69,0,1,748
72.645836,0.22291666,52,65,0,1,749
72.70729,0.11770833,57,78,0,1,750
72.71354,0.06979167,75,85,0,1,751
72.84688,0.104166664,76,83,0,1,752
72.98333,0.07083333,72,75,0,1,753
73.097916,0.06979167,69,69,0,1,754
73.13125,0.6020833,50,69,0,1,755
73.20417,0.14583333,57,72,0,1,756
73.22083,0.083333336,71,84,0,1,757
73.23125,0.067708336,60,77,0,1,758
73.35625,0.114583336,72,82,0,1,759
73.464584,0.10520833,69,77,0,1,760
73.60104,0.079166666,66,71,0,1,761
73.70937,0.041666668,67,75,0,1,762
73.71146,0.15729167,59,68,0,1,763
73.72083,0.20520833,55,64,0,1,764
73.925,0.077083334,79,66,0,1,765
74.08437,0.1125,83,61,0,1,766
74.22604,0.0375,81,61,0,1,767
74.33854,0.051041666,79,64,0,1,768
74.45104,0.140625,78,71,0,1,769
74.58437,0.11875,76,62,0,1,770
74.71042,0.06458333,74,74,0,1,771
74.83542,0.06979167,72,75,0,1,772
74.95625,0.12291667,71,79,0,1,773
75.08646,0.06979167,69,79,0,1,774
75.20729,0.0875,67,77,0,1,775
75.33125,0.11354167,66,80,0,1,776
75.458336,0.060416665,64,74,0,1,777
75.59062,0.072916664,62,70,0,1,778
75.72396,0.044791665,61,61,0,1,779
75.864586,1.246875,60,74,0,1,780
76.45625,0.123958334,57,44,0,1,781
76.458336,0.119791664,45,45,0,1,782
77.02187,0.11770833,42,41,0,1,783
77.02604,0.08541667,54,36,0,1,784
77.16354,0.13229166,62,59,0,1,785
77.3125,0.10729167,64,56,0,1,786
77.42812,0.14166667,62,54,0,1,787
77.54271,0.15416667,50,44,0,1,788
77.54375,0.071875,38,47,0,1,789
77.54583,0.2125,66,70,0,1,790
77.67812,0.109375,64,62,0,1,791
77.69688,0.3,50,15,0,1,792
77.79271,0.063541666,62,69,0,1,793
77.91146,0.0625,60,68,0,1,794
78.02917,0.046875,43,49,0,1,795
78.04479,0.92604166,60,59,0,1,796
78.04792,0.45416668,57,68,0,1,797
78.16458,0.071875,55,62,0,1,798
78.29792,0.0625,54,61,0,1,799
78.43021,0.060416665,55,60,0,1,800
78.55417,0.17083333,54,57,0,1,801
78.74167,0.042708334,55,47,0,1,802
78.86771,0.052083332,54,38,0,1,803
78.89896,0.058333334,55,58,0,1,804
79.046875,0.040625,59,65,0,1,805
79.0625,0.030208332,55,50,0,1,806
79.0875,0.057291668,43,34,0,1,807
79.23542,0.083333336,67,69,0,1,808
79.354164,0.09791667,66,62,0,1,809
79.46146,0.040625,67,69,0,1,810
79.59583,0.033333335,62,66,0,1,811
79.73542,0.075,74,66,0,1,812
79.86146,0.09166667,73,66,0,1,813
79.99167,0.047916666,74,63,0,1,814
80.10729,0.036458332,71,59,0,1,815
80.25938,0.08645833,79,58,0,1,816
80.36875,0.11354167,78,54,0,1,817
80.49479,0.042708334,79,57,0,1,818
80.6375,0.046875,74,52,0,1,819
80.78438,0.08125,83,48,0,1,820
80.88229,0.11354167,81,55,0,1,821
81.01458,0.09166667,83,55,0,1,822
81.18229,0.12604167,79,39,0,1,823
82.19375,0.57604164,64,69,0,1,824
82.27292,0.4875,67,72,0,1,825
82.30104,0.08020833,48,66,0,1,826
82.32604,0.46041667,72,86,0,1,827
82.44688,0.061458334,60,68,0,1,828
82.566666,0.05625,59,73,0,1,829
82.69375,0.05,60,74,0,1,830
82.82917,0.28333333,48,74,0,1,831
83.120834,0.07395833,72,67,0,1,832
83.245834,0.07395833,71,70,0,1,833
83.364586,0.13020833,74,78,0,1,834
83.49062,0.094791666,72,78,0,1,835
83.60729,0.061458334,76,80,0,1,836
83.72813,0.08645833,74,83,0,1,837
83.85104,0.094791666,77,83,0,1,838
83.96354,0.123958334,76,83,0,1,839
84.083336,0.13229166,79,79,0,1,840
84.19479,0.10208333,77,78,0,1,841
84.33229,0.08125,69,75,0,1,842
84.39167,0.321875,74,75,0,1,843
84.46562,0.26979166,53,51,0,1,844
84.46667,0.28645834,77,67,0,1,845
84.47188,0.32395834,41,51,0,1,846
84.472916,0.44895834,81,81,0,1,847
85.04271,0.125,79,56,0,1,848
85.16979,0.08020833,77,56,0,1,849
85.282295,0.045833334,76,64,0,1,850
85.39375,0.058333334,74,66,0,1,851
85.51979,0.0375,72,61,0,1,852
85.572914,0.08645833,74,73,0,1,853
85.66146,0.05,72,66,0,1,854
85.73021,0.039583333,71,56,0,1,855
85.82396,0.039583333,52,57,0,1,856
85.825,0.094791666,72,75,0,1,857
85.94271,0.08958333,76,72,0,1,858
86.08125,0.075,74,71,0,1,859
86.09688,0.0375,53,53,0,1,860
86.20937,0.15416667,77,71,0,1,861
86.33646,0.05,55,49,0,1,862
86.342705,0.083333336,71,67,0,1,863
86.46042,0.05625,74,69,0,1,864
86.629166,0.42395833,64,72,0,1,865
86.64792,0.061458334,48,66,0,1,866
86.683334,0.365625,67,74,0,1,867
86.72708,0.34583333,72,81,0,1,868
86.77187,0.051041666,60,69,0,1,869
86.89896,0.040625,59,72,0,1,870
87.0125,0.038541667,60,73,0,1,871
87.140625,0.20625,48,75,0,1,872
87.41771,0.08645833,72,67,0,1,873
87.55521,0.1,71,67,0,1,874
87.66354,0.119791664,74,69,0,1,875
87.78125,0.09166667,72,75,0,1,876
87.902084,0.057291668,76,76,0,1,877
88.01979,0.12083333,74,79,0,1,878
88.13333,0.11145833,77,84,0,1,879
88.25208,0.125,76,82,0,1,880
88.375,0.153125,79,78,0,1,881
88.484375,0.1125,77,79,0,1,882
88.60729,0.08229167,69,67,0,1,883
88.65833,0.33958334,74,78,0,1,884
88.74271,0.30729166,77,69,0,1,885
88.74479,0.43958333,81,74,0,1,886
88.75729,0.26875,53,46,0,1,887
88.77812,0.34895834,41,49,0,1,888
89.280205,0.13125,79,57,0,1,889
89.41146,0.072916664,77,56,0,1,890
89.520836,0.04375,76,67,0,1,891
89.635414,0.054166667,74,69,0,1,892
89.760414,0.041666668,72,65,0,1,893
89.813545,0.088541664,74,68,0,1,894
89.91563,0.036458332,72,63,0,1,895
89.96875,0.039583333,71,52,0,1,896
90.05625,0.11770833,72,67,0,1,897
90.06771,0.055208333,52,43,0,1,898
90.191666,0.13125,76,69,0,1,899
90.32188,0.13333334,74,67,0,1,900
90.325,0.083333336,53,46,0,1,901
90.45937,0.15208334,77,63,0,1,902
90.57396,0.061458334,55,27,0,1,903
90.583336,0.1,71,58,0,1,904
90.714584,0.10625,74,62,0,1,905
90.825,0.09375,60,47,0,1,906
90.83542,0.06666667,72,66,0,1,907
90.975,0.048958335,67,48,0,1,908
91.08229,0.058333334,74,59,0,1,909
91.09062,0.061458334,64,47,0,1,910
91.166664,0.047916666,72,61,0,1,911
91.19896,0.061458334,67,41,0,1,912
91.23542,0.06875,71,61,0,1,913
91.34167,0.0375,72,63,0,1,914
91.342705,0.110416666,60,46,0,1,915
91.45937,0.06979167,67,44,0,1,916
91.578125,0.042708334,76,66,0,1,917
91.60104,0.05625,64,36,0,1,918
91.70625,0.079166666,67,44,0,1,919
91.84375,0.37395832,73,62,0,1,920
91.85833,0.25,59,36,0,1,921
91.975,0.07604167,67,35,0,1,922
92.11042,0.08541667,62,39,0,1,923
92.22708,0.09166667,67,35,0,1,924
92.38438,0.20833333,59,31,0,1,925
92.38438,0.2125,74,42,0,1,926
92.49062,0.078125,67,31,0,1,927
92.62813,0.06458333,62,39,0,1,928
92.72708,0.079166666,67,39,0,1,929
92.859375,0.08229167,59,36,0,1,930
92.947914,0.071875,67,49,0,1,931
93.05521,0.07083333,76,61,0,1,932
93.097916,0.067708336,62,47,0,1,933
93.12292,0.048958335,74,60,0,1,934
93.188545,0.077083334,73,69,0,1,935
93.2,0.071875,67,49,0,1,936
93.29271,0.060416665,74,78,0,1,937
93.31563,0.21979167,59,53,0,1,938
93.42812,0.071875,67,50,0,1,939
93.541664,0.063541666,77,78,0,1,940
93.56771,0.067708336,62,50,0,1,941
93.671875,0.108333334,67,51,0,1,942
93.822914,0.44479167,75,73,0,1,943
93.83646,0.13541667,60,44,0,1,944
93.94896,0.08229167,67,46,0,1,945
94.07917,0.088541664,64,42,0,1,946
94.197914,0.083333336,67,45,0,1,947
94.33021,0.23541667,76,61,0,1,948
94.33125,0.18645833,60,44,0,1,949
94.45208,0.083333336,67,43,0,1,950
94.58542,0.077083334,64,42,0,1,951
94.70625,0.075,67,46,0,1,952
94.854164,0.078125,60,41,0,1,953
94.95208,0.07083333,67,45,0,1,954
95.078125,0.06458333,79,56,0,1,955
95.10104,0.075,64,46,0,1,956
95.14687,0.060416665,79,62,0,1,957
95.21562,0.072916664,78,65,0,1,958
95.22188,0.07083333,67,46,0,1,959
95.322914,0.042708334,79,58,0,1,960
95.36979,0.15625,60,48,0,1,961
95.375,0.051041666,84,71,0,1,962
95.53854,0.065625,67,34,0,1,963
95.61667,0.044791665,82,69,0,1,964
95.63333,0.07083333,64,46,0,1,965
95.7625,0.079166666,67,43,0,1,966
95.89896,0.303125,80,55,0,1,967
95.93437,0.175,60,27,0,1,968
96.05104,0.079166666,69,41,0,1,969
96.15625,0.0625,65,48,0,1,970
96.29375,0.077083334,69,47,0,1,971
96.43437,0.13125,81,60,0,1,972
96.44271,0.08958333,60,39,0,1,973
96.54896,0.078125,69,39,0,1,974
96.67083,0.058333334,65,45,0,1,975
96.77396,0.11354167,69,53,0,1,976
96.88958,0.077083334,81,74,0,1,977
96.927086,0.06666667,60,44,0,1,978
96.97083,0.08541667,83,68,0,1,979
97.04063,0.055208333,69,45,0,1,980
97.05312,0.39791667,84,72,0,1,981
97.16875,0.052083332,65,50,0,1,982
97.29271,0.078125,69,45,0,1,983
97.45,0.11770833,83,66,0,1,984
97.45521,0.078125,60,43,0,1,985
97.561455,0.12708333,81,69,0,1,986
97.56563,0.05625,69,44,0,1,987
97.67812,0.071875,65,50,0,1,988
97.691666,0.072916664,79,68,0,1,989
97.79271,0.090625,69,48,0,1,990
97.81042,0.077083334,77,66,0,1,991
97.94583,0.34166667,78,64,0,1,992
97.97396,0.119791664,60,30,0,1,993
98.09688,0.06875,67,47,0,1,994
98.23125,0.094791666,64,36,0,1,995
98.35,0.07083333,67,31,0,1,996
98.489586,0.434375,79,52,0,1,997
98.498955,0.24479167,60,37,0,1,998
98.59167,0.109375,67,45,0,1,999
98.734375,0.055208333,64,51,0,1,1000
98.84167,0.046875,67,65,0,1,1001
98.96875,0.0875,52,67,0,1,1002
99.10625,0.07395833,55,58,0,1,1003
99.23333,0.051041666,60,64,0,1,1004
99.35313,0.039583333,64,62,0,1,1005
99.49062,0.0375,67,66,0,1,1006
99.60833,0.067708336,72,73,0,1,1007
99.72813,0.060416665,76,70,0,1,1008
99.84375,0.03125,79,74,0,1,1009
99.95521,0.09583333,53,69,0,1,1010
100.08125,0.088541664,57,65,0,1,1011
100.20104,0.06666667,60,66,0,1,1012
100.33021,0.0375,65,67,0,1,1013
100.472916,0.036458332,69,69,0,1,1014
100.5875,0.07604167,72,74,0,1,1015
100.714584,0.046875,77,75,0,1,1016
100.8375,0.053125,81,84,0,1,1017
100.972916,0.16458334,81,90,0,1,1018
101.092705,0.15,79,81,0,1,1019
101.20937,0.059375,60,50,0,1,1020
101.2125,0.05625,55,49,0,1,1022
101.2125,0.11354167,77,84,0,1,1021
101.33437,0.048958335,76,79,0,1,1023
101.45521,0.063541666,59,57,0,1,1024
101.45937,0.094791666,76,83,0,1,1025
101.48021,0.041666668,55,42,0,1,1026
101.583336,0.067708336,74,86,0,1,1027
101.697914,0.052083332,55,47,0,1,1028
101.70521,0.06979167,76,84,0,1,1029
101.70937,0.05625,62,53,0,1,1030
101.833336,0.057291668,77,84,0,1,1031
101.97708,0.59583336,77,78,0,1,1032
101.99375,0.284375,56,46,0,1,1033
102.00938,0.265625,62,42,0,1,1034
102.59896,0.31041667,76,47,0,1,1035
102.61771,0.184375,57,36,0,1,1036
102.63854,0.3375,60,29,0,1,1037
103.18229,0.66979164,52,25,0,1,1038
103.30312,0.5541667,55,35,0,1,1039
103.49271,0.48333332,60,29,0,1,1040
103.59062,0.56145835,64,40,0,1,1041
103.75,0.078125,67,40,0,1,1042
103.89271,0.11770833,72,49,0,1,1043
104.027084,0.108333334,76,55,0,1,1044
104.145836,0.29375,79,56,0,1,1045
104.260414,0.53229165,53,52,0,1,1046
104.39792,0.51875,57,50,0,1,1047
104.5375,0.37916666,60,52,0,1,1048
104.655205,0.18541667,65,54,0,1,1049
104.79271,0.09375,69,53,0,1,1050
104.91771,0.090625,72,61,0,1,1051
105.06771,0.096875,77,61,0,1,1052
105.18229,0.036458332,81,61,0,1,1053
105.30417,0.17291667,81,76,0,1,1054
105.43542,0.15625,79,69,0,1,1055
105.561455,0.06666667,60,56,0,1,1057
105.561455,0.11875,77,69,0,1,1056
105.59375,0.051041666,55,39,0,1,1058
105.67812,0.052083332,76,71,0,1,1059
105.81875,0.14375,76,74,0,1,1060
105.82917,0.092708334,59,48,0,1,1061
105.842705,0.048958335,55,35,0,1,1062
105.94688,0.119791664,74,72,0,1,1063
106.07083,0.06875,72,73,0,1,1064
106.072914,0.067708336,65,63,0,1,1065
106.09688,0.12708333,55,38,0,1,1066
106.18542,0.07395833,71,74,0,1,1067
106.30104,0.044791665,64,47,0,1,1068
106.30729,0.03125,60,59,0,1,1069
106.313545,0.44479167,72,78,0,1,1070
106.441666,0.0625,60,64,0,1,1071
106.58125,0.033333335,59,57,0,1,1072
106.69688,0.035416666,60,60,0,1,1073
106.82083,0.040625,47,69,0,1,1074
106.82917,0.29479167,76,86,0,1,1075
106.83125,0.34791666,70,81,0,1,1076
106.83854,0.378125,67,74,0,1,1077
106.953125,0.041666668,48,71,0,1,1078
107.072914,0.04375,47,75,0,1,1079
107.19583,0.053125,48,74,0,1,1080
107.32083,0.0375,36,81,0,1,1081
107.60208,0.203125,77,75,0,1,1082
107.614586,0.07604167,69,69,0,1,1083
107.87708,0.055208333,69,75,0,1,1084
107.88021,0.046875,65,70,0,1,1085
108.129166,0.03125,62,66,0,1,1086
108.129166,0.039583333,71,61,0,1,1087
108.17604,0.065625,72,73,0,1,1088
108.2625,0.0625,71,75,0,1,1089
108.322914,0.10208333,69,68,0,1,1090
108.41771,0.065625,71,76,0,1,1091
108.541664,0.47604167,72,75,0,1,1092
108.54479,0.033333335,59,79,0,1,1093
108.55417,0.21770833,64,76,0,1,1094
108.691666,0.04375,60,72,0,1,1095
108.816666,0.057291668,59,74,0,1,1096
108.938545,0.034375,60,72,0,1,1097
109.066666,0.31979167,76,91,0,1,1098
109.07188,0.35,70,82,0,1,1099
109.072914,0.41041666,67,80,0,1,1100
109.078125,0.044791665,47,67,0,1,1101
109.20937,0.045833334,48,75,0,1,1102
109.325,0.052083332,47,77,0,1,1103
109.44375,0.058333334,48,79,0,1,1104
109.572914,0.04375,36,82,0,1,1105
109.86562,0.19895834,77,69,0,1,1106
109.87292,0.123958334,69,68,0,1,1107
110.126045,0.058333334,65,55,0,1,1108
110.12813,0.058333334,69,72,0,1,1109
110.37813,0.04375,71,61,0,1,1110
110.38958,0.039583333,62,58,0,1,1111
110.441666,0.08958333,72,65,0,1,1112
110.53125,0.04375,71,74,0,1,1113
110.729164,0.044791665,72,61,0,1,1114
110.73229,0.28645834,64,36,0,1,1115
110.80729,0.054166667,74,56,0,1,1116
110.87187,0.055208333,72,66,0,1,1117
110.96146,0.057291668,71,57,0,1,1118
111.04063,0.24270834,55,39,0,1,1119
111.046875,0.090625,72,62,0,1,1120
111.15938,0.07395833,76,68,0,1,1121
111.29375,0.05625,74,63,0,1,1122
111.30312,0.25208333,59,57,0,1,1123
111.36979,0.079166666,76,64,0,1,1124
111.44896,0.060416665,74,69,0,1,1125
111.525,0.060416665,72,58,0,1,1126
111.58854,0.23645833,55,44,0,1,1127
111.6,0.0875,74,71,0,1,1128
111.708336,0.08125,77,70,0,1,1129
111.816666,0.078125,76,75,0,1,1130
111.83125,0.25,60,60,0,1,1131
111.91354,0.092708334,77,74,0,1,1132
112.00521,0.047916666,76,70,0,1,1133
112.04896,0.09166667,74,69,0,1,1134
112.11354,0.184375,55,62,0,1,1135
112.13229,0.083333336,76,74,0,1,1136
112.24375,0.065625,79,78,0,1,1137
112.35313,0.06875,77,74,0,1,1138
112.35625,0.25520834,62,57,0,1,1139
112.425,0.090625,79,80,0,1,1140
112.51667,0.059375,77,75,0,1,1141
112.566666,0.088541664,76,69,0,1,1142
112.65104,0.17708333,55,55,0,1,1144
112.65104,0.098958336,77,78,0,1,1143
112.75208,0.06458333,81,81,0,1,1145
112.86875,0.10104167,64,60,0,1,1146
112.89167,0.13229166,79,79,0,1,1147
113.004166,0.13229166,84,84,0,1,1148
113.135414,0.140625,88,89,0,1,1149
113.26458,0.146875,83,85,0,1,1150
113.38438,0.08125,84,91,0,1,1151
113.50938,0.075,79,81,0,1,1152
113.61771,0.05,53,53,0,1,1153
113.63229,0.046875,62,51,0,1,1155
113.63229,0.088541664,81,85,0,1,1154
113.75729,0.061458334,77,75,0,1,1156
113.87708,0.077083334,76,79,0,1,1157
113.89479,0.275,60,49,0,1,1158
113.90417,0.684375,55,42,0,1,1159
113.98125,0.075,77,64,0,1,1160
114.06979,0.098958336,76,58,0,1,1161
114.254166,0.371875,74,46,0,1,1162
114.265625,0.4125,59,34,0,1,1163
115.219795,0.06875,73,62,0,1,1164
115.24479,0.46770832,74,56,0,1,1165
115.83854,0.0375,73,64,0,1,1166
115.88229,0.16770834,74,58,0,1,1167
116.3375,0.07083333,71,63,0,1,1168
116.40417,0.06875,74,64,0,1,1169
116.45729,0.094791666,80,67,0,1,1170
116.56458,1.2052083,83,61,0,1,1171
116.675,0.14791666,40,46,0,1,1172
116.81458,0.14791666,44,57,0,1,1173
116.941666,0.059375,47,59,0,1,1174
117.07396,0.05,52,59,0,1,1175
117.2125,0.41041666,56,45,0,1,1176
117.36354,0.25416666,59,44,0,1,1177
117.48333,0.06979167,64,48,0,1,1178
117.61667,0.24583334,52,49,0,1,1179
117.7625,0.14375,81,58,0,1,1180
117.8875,0.14270833,80,65,0,1,1181
118.02604,0.075,77,62,0,1,1182
118.14167,0.065625,76,69,0,1,1183
118.27187,0.15625,74,76,0,1,1184
118.39479,0.123958334,72,75,0,1,1185
118.395836,0.044791665,52,48,0,1,1186
118.39896,0.045833334,56,48,0,1,1187
118.52187,0.07083333,71,74,0,1,1188
118.65625,0.5885417,45,56,0,1,1189
118.65938,0.13541667,74,81,0,1,1190
118.66771,0.6010417,57,53,0,1,1191
118.796875,0.11666667,72,67,0,1,1192
118.933334,0.11875,71,57,0,1,1193
119.063545,0.104166664,72,64,0,1,1194
119.19479,0.092708334,71,60,0,1,1195
119.32604,0.10625,72,59,0,1,1196
119.45625,0.06979167,74,61,0,1,1197
119.58229,0.047916666,72,52,0,1,1198
119.717705,0.05,71,55,0,1,1199
119.74271,0.39583334,72,56,0,1,1200
120.32083,0.054166667,71,54,0,1,1201
120.375,0.178125,72,62,0,1,1202
120.825,0.092708334,69,56,0,1,1203
120.90833,0.079166666,72,59,0,1,1204
120.95625,0.10520833,78,61,0,1,1205
121.058334,1.1989583,81,61,0,1,1206
121.208336,0.10104167,38,42,0,1,1207
121.33542,0.2,42,51,0,1,1208
121.47708,0.048958335,45,55,0,1,1209
121.597916,0.06458333,50,59,0,1,1210
121.74167,0.340625,54,50,0,1,1211
121.88125,0.209375,57,56,0,1,1212
122.01458,0.11770833,62,48,0,1,1213
122.14271,0.27291667,50,53,0,1,1214
122.296875,0.14270833,79,49,0,1,1215
122.4125,0.13854167,78,61,0,1,1216
122.54375,0.08125,76,62,0,1,1217
122.66875,0.063541666,74,65,0,1,1218
122.79479,0.16354166,72,72,0,1,1219
122.91875,0.11875,71,71,0,1,1220
122.93229,0.06875,54,56,0,1,1221
122.94479,0.042708334,50,44,0,1,1222
123.06042,0.115625,69,69,0,1,1223
123.19271,0.5208333,71,65,0,1,1224
123.20208,0.054166667,55,53,0,1,1225
123.35313,0.07604167,67,53,0,1,1226
123.50313,0.09583333,66,50,0,1,1227
123.629166,0.067708336,67,45,0,1,1228
123.75521,0.041666668,74,59,0,1,1229
123.77187,0.23020834,59,42,0,1,1230
123.93125,0.06666667,67,28,0,1,1231
124.03958,0.328125,74,64,0,1,1232
124.04896,0.20208333,66,45,0,1,1233
124.19375,0.140625,67,39,0,1,1234
124.36667,0.19375,76,67,0,1,1235
124.410416,0.19895834,60,29,0,1,1236
124.57396,0.090625,67,19,0,1,1237
124.67396,0.084375,66,42,0,1,1238
124.811455,0.084375,67,46,0,1,1239
124.813545,0.1375,78,57,0,1,1240
124.94063,0.20208333,81,69,0,1,1241
124.969795,0.16458334,60,44,0,1,1242
125.06979,0.15416667,79,73,0,1,1243
125.072914,0.08229167,67,39,0,1,1244
125.191666,0.15520833,78,78,0,1,1245
125.20208,0.14479166,66,49,0,1,1246
125.313545,0.114583336,76,72,0,1,1247
125.33229,0.078125,67,45,0,1,1248
125.46354,0.12604167,74,66,0,1,1249
125.479164,0.24791667,59,48,0,1,1250
125.60208,0.08645833,67,46,0,1,1251
125.73854,0.057291668,66,48,0,1,1252
125.86771,0.051041666,67,56,0,1,1253
126.00313,0.08125,74,77,0,1,1254
126.01771,0.046875,55,52,0,1,1255
126.12708,0.090625,67,58,0,1,1256
126.13021,0.090625,71,68,0,1,1257
126.25625,0.077083334,74,73,0,1,1258
126.28333,0.057291668,66,48,0,1,1259
126.373955,0.09375,71,69,0,1,1260
126.3875,0.061458334,67,56,0,1,1261
126.51458,0.11875,76,74,0,1,1262
126.53646,0.153125,60,54,0,1,1263
126.67396,0.0625,67,50,0,1,1264
126.7875,0.13645834,66,61,0,1,1265
126.91458,0.13333334,78,68,0,1,1266
126.94583,0.053125,67,51,0,1,1267
127.04375,0.184375,81,78,0,1,1268
127.0625,0.13541667,60,56,0,1,1269
127.17604,0.15625,79,78,0,1,1270
127.19271,0.06875,67,50,0,1,1271
127.30312,0.123958334,78,76,0,1,1272
127.322914,0.10625,66,63,0,1,1273
127.41875,0.08541667,76,73,0,1,1274
127.453125,0.063541666,67,50,0,1,1275
127.55521,0.09375,74,72,0,1,1276
127.57917,0.15625,59,44,0,1,1277
127.84062,0.16145833,83,67,0,1,1278
127.97813,0.13229166,81,65,0,1,1279
128.09688,0.11770833,79,70,0,1,1280
128.21666,0.083333336,78,75,0,1,1281
128.34271,0.075,76,76,0,1,1282
128.37917,0.19583334,68,54,0,1,1283
128.46562,0.063541666,74,73,0,1,1284
128.56667,0.06979167,72,80,0,1,1285
128.60417,0.14166667,69,56,0,1,1286
128.64479,0.08958333,74,73,0,1,1287
128.72917,0.04375,72,75,0,1,1288
128.875,0.1625,81,82,0,1,1289
129.0073,0.13020833,79,69,0,1,1290
129.11354,0.13958333,78,76,0,1,1291
129.2448,0.054166667,76,70,0,1,1292
129.37187,0.051041666,74,70,0,1,1293
129.38437,0.20833333,66,61,0,1,1294
129.50626,0.048958335,72,76,0,1,1295
129.6177,0.05625,71,76,0,1,1296
129.62083,0.16979167,67,47,0,1,1297
129.66978,0.10208333,72,71,0,1,1298
129.76562,0.036458332,71,70,0,1,1299
129.90834,0.15625,79,68,0,1,1300
130.03229,0.18333334,78,67,0,1,1301
130.16978,0.125,76,59,0,1,1302
130.30104,0.07083333,74,66,0,1,1303
130.42084,0.06666667,72,67,0,1,1304
130.42291,0.21458334,64,36,0,1,1305
130.53542,0.06979167,71,74,0,1,1306
130.63959,0.06666667,69,76,0,1,1307
130.65416,0.23229167,60,62,0,1,1308
130.70729,0.09166667,71,69,0,1,1309
130.79271,0.061458334,69,71,0,1,1310
130.925,0.14375,76,78,0,1,1311
131.06354,0.13541667,74,67,0,1,1312
131.1823,0.10625,72,70,0,1,1313
131.30417,0.065625,71,68,0,1,1314
131.42291,0.25833333,61,56,0,1,1315
131.4323,0.06875,69,74,0,1,1316
131.55937,0.078125,67,72,0,1,1317
131.66042,0.03125,66,71,0,1,1318
131.67188,0.18958333,62,69,0,1,1319
131.80833,0.06666667,74,79,0,1,1320
131.9375,0.190625,83,85,0,1,1321
132.07709,0.140625,81,80,0,1,1322
132.1875,0.088541664,79,82,0,1,1323
132.3052,0.08541667,78,83,0,1,1324
132.42917,0.071875,76,82,0,1,1325
132.43959,0.22291666,68,62,0,1,1326
132.56667,0.05,74,84,0,1,1327
132.6823,0.07604167,74,86,0,1,1328
132.69376,0.119791664,69,54,0,1,1329
132.81459,0.046875,73,73,0,1,1330
132.93333,0.065625,81,80,0,1,1331
133.07709,0.034375,79,75,0,1,1332
133.20416,0.034375,78,68,0,1,1333
133.31563,0.038541667,76,78,0,1,1334
133.4448,0.04375,74,75,0,1,1335
133.45522,0.23333333,66,58,0,1,1336
133.56563,0.03125,72,79,0,1,1337
133.6875,0.063541666,72,91,0,1,1338
133.71875,0.51458335,67,57,0,1,1339
133.82603,0.065625,71,70,0,1,1340
133.95,0.17291667,79,66,0,1,1341
134.0677,0.196875,78,69,0,1,1342
134.20833,0.121875,76,62,0,1,1343
134.3375,0.08020833,74,70,0,1,1344
134.46355,0.094791666,72,64,0,1,1345
134.5052,0.20520833,64,50,0,1,1346
134.58646,0.084375,71,64,0,1,1347
134.74167,0.47708333,69,55,0,1,1348
134.77188,0.51875,60,40,0,1,1349
134.91667,0.041666668,67,45,0,1,1350
135.07292,0.063541666,66,42,0,1,1351
135.16875,0.06458333,67,46,0,1,1352
135.28438,0.055208333,71,63,0,1,1353
135.34062,0.38020834,62,47,0,1,1354
135.37917,0.04375,72,64,0,1,1355
135.47084,0.038541667,71,59,0,1,1356
135.48125,0.075,67,50,0,1,1357
135.53021,0.065625,72,66,0,1,1358
135.60834,0.078125,71,63,0,1,1359
135.64166,0.19375,66,41,0,1,1360
135.68646,0.051041666,72,58,0,1,1361
135.74687,0.071875,71,46,0,1,1362
135.77812,0.190625,67,49,0,1,1363
135.83333,0.078125,69,61,0,1,1364
135.92084,0.08541667,71,53,0,1,1365
136.02292,0.778125,72,58,0,1,1366
136.02916,0.175,64,41,0,1,1367
136.19167,0.071875,67,52,0,1,1368
136.34062,0.15,66,52,0,1,1369
136.45938,0.05625,67,55,0,1,1370
136.58229,0.123958334,62,60,0,1,1371
136.72188,0.055208333,67,46,0,1,1372
136.82083,0.21979167,71,60,0,1,1373
136.83125,0.15833333,66,55,0,1,1374
136.9448,0.110416666,67,51,0,1,1375
137.0625,0.040625,69,65,0,1,1376
137.08438,0.17083333,60,57,0,1,1377
137.19583,0.063541666,67,59,0,1,1378
137.325,0.046875,68,59,0,1,1379
137.32812,0.28958333,69,75,0,1,1380
137.33646,0.15,66,65,0,1,1381
137.45312,0.055208333,67,57,0,1,1382
137.58022,0.16041666,62,55,0,1,1383
137.5875,0.06875,71,74,0,1,1384
137.70209,0.08125,67,56,0,1,1385
137.84271,0.044791665,70,59,0,1,1386
137.84479,0.058333334,71,75,0,1,1387
137.85104,0.125,66,59,0,1,1388
137.96458,0.09166667,67,61,0,1,1389
138.10834,0.057291668,71,83,0,1,1390
138.1177,0.14791666,64,62,0,1,1391
138.23125,0.10625,74,74,0,1,1392
138.23647,0.084375,67,58,0,1,1393
138.36147,0.57916665,72,69,0,1,1394
138.3823,0.15208334,66,51,0,1,1395
138.5,0.078125,67,48,0,1,1396
138.64479,0.13958333,62,40,0,1,1397
138.76979,0.0625,67,36,0,1,1398
138.8802,0.046875,71,65,0,1,1399
138.89062,0.190625,66,47,0,1,1400
139.01042,0.047916666,67,55,0,1,1401
139.16458,0.06666667,68,44,0,1,1402
139.16562,0.85729164,69,54,0,1,1403
139.46458,0.23125,64,35,0,1,1404
139.47708,0.175,60,32,0,1,1405
139.71146,0.3125,63,45,0,1,1406
139.71979,0.303125,59,47,0,1,1407
139.99167,0.153125,60,45,0,1,1408
139.9927,0.10208333,64,47,0,1,1409
140.24167,0.05625,71,84,0,1,1410
140.31563,0.96666664,72,75,0,1,1411
140.52916,0.25,64,45,0,1,1412
140.53125,0.16041666,60,48,0,1,1413
140.78334,0.27291667,63,47,0,1,1414
140.79478,0.27708334,59,41,0,1,1415
141.06876,0.063541666,64,42,0,1,1416
141.07396,0.059375,60,46,0,1,1417
141.32603,0.046875,75,46,0,1,1418
141.32603,0.5239583,76,58,0,1,1419
141.61041,0.27291667,64,37,0,1,1420
141.61147,0.18645833,60,42,0,1,1421
141.86667,0.21875,63,48,0,1,1422
141.88542,0.25104168,59,40,0,1,1423
142.15938,0.035416666,60,48,0,1,1424
142.17291,0.051041666,64,40,0,1,1425
142.40312,0.027083334,68,81,0,1,1427
142.40312,0.026041666,69,82,0,1,1426
142.65938,0.030208332,71,70,0,1,1428
142.66042,0.041666668,72,76,0,1,1429
142.88333,0.053125,76,68,0,1,1430
142.89272,0.048958335,75,46,0,1,1431
143.16667,0.055208333,81,70,0,1,1432
143.16875,0.040625,80,61,0,1,1433
143.42291,0.03125,83,68,0,1,1434
143.42397,0.03125,84,68,0,1,1435
143.6802,0.046875,81,69,0,1,1436
143.68541,0.036458332,80,62,0,1,1437
143.92917,0.046875,75,50,0,1,1438
143.96562,0.029166667,76,55,0,1,1439
144.20103,0.0375,72,68,0,1,1440
144.21666,0.035416666,71,48,0,1,1441
144.44376,0.059375,71,76,0,1,1442
144.46666,0.075,50,61,0,1,1443
144.48438,0.10729167,72,79,0,1,1444
144.5677,0.85625,74,78,0,1,1445
144.60938,0.042708334,59,50,0,1,1446
144.71771,0.075,55,59,0,1,1447
144.8177,0.078125,59,47,0,1,1448
144.97604,0.078125,50,51,0,1,1449
144.97812,0.14375,72,69,0,1,1450
145.09271,0.13229166,71,75,0,1,1451
145.10312,0.060416665,59,48,0,1,1452
145.22604,0.094791666,69,72,0,1,1453
145.25626,0.052083332,55,46,0,1,1454
145.34375,0.17083333,67,71,0,1,1455
145.36458,0.055208333,59,52,0,1,1456
145.54478,0.234375,50,46,0,1,1457
145.55,0.075,69,60,0,1,1458
145.67291,0.042708334,71,61,0,1,1459
145.7375,0.05625,60,37,0,1,1460
145.77396,0.05,69,62,0,1,1461
145.8375,0.07083333,54,46,0,1,1462
145.85417,0.045833334,71,56,0,1,1463
145.92917,0.060416665,69,69,0,1,1464
145.96042,0.05,60,44,0,1,1465
146.00626,0.059375,71,64,0,1,1466
146.09792,0.20104167,50,56,0,1,1468
146.09792,0.054166667,69,69,0,1,1467
146.16875,0.060416665,71,63,0,1,1469
146.23647,0.05625,60,40,0,1,1470
146.26875,0.0375,69,56,0,1,1471
146.28645,0.06875,71,56,0,1,1472
146.30624,0.078125,54,50,0,1,1473
146.37813,0.042708334,69,59,0,1,1474
146.42917,0.10625,67,55,0,1,1475
146.45,0.06666667,60,51,0,1,1476
146.51146,0.079166666,69,67,0,1,1477
146.66042,0.125,67,62,0,1,1478
146.66771,0.134375,55,56,0,1,1479
146.79271,0.055208333,62,55,0,1,1480
146.9125,0.040625,79,66,0,1,1481
146.91771,0.041666668,59,53,0,1,1482
147.03958,0.044791665,62,53,0,1,1483
147.05417,0.03125,79,71,0,1,1484
147.17397,0.1,79,83,0,1,1485
147.17813,0.05,55,61,0,1,1486
147.29897,0.08229167,74,68,0,1,1487
147.42604,0.04375,71,66,0,1,1488
147.55208,0.07604167,67,70,0,1,1489
147.67917,0.23541667,54,55,0,1,1490
147.68854,0.03125,69,71,0,1,1491
147.80624,0.053125,62,56,0,1,1492
147.93854,0.052083332,57,58,0,1,1493
147.95103,0.042708334,81,75,0,1,1494
148.07187,0.042708334,62,56,0,1,1495
148.07916,0.030208332,81,74,0,1,1496
148.20416,0.05625,54,62,0,1,1497
148.20938,0.15625,81,85,0,1,1498
148.33646,0.10625,78,75,0,1,1499
148.46771,0.061458334,74,75,0,1,1500
148.59688,0.07395833,69,64,0,1,1501
148.71146,0.18125,55,58,0,1,1502
148.72084,0.03125,71,69,0,1,1503
148.83438,0.053125,62,61,0,1,1504
148.96458,0.059375,83,81,0,1,1505
148.97395,0.039583333,59,59,0,1,1506
149.10625,0.044791665,62,61,0,1,1507
149.10834,0.039583333,83,75,0,1,1508
149.22917,0.140625,83,91,0,1,1509
149.23958,0.05625,55,65,0,1,1510
149.35521,0.08125,79,80,0,1,1511
149.50417,0.05,74,46,0,1,1512
149.60938,0.05,71,71,0,1,1513
149.73228,0.077083334,75,84,0,1,1514
149.73647,0.114583336,48,66,0,1,1515
149.7375,0.047916666,52,51,0,1,1517
149.7375,0.10729167,57,61,0,1,1516
149.85938,0.08541667,76,84,0,1,1518
149.88853,0.0625,52,49,0,1,1519
149.9948,0.06875,72,78,0,1,1520
150.11667,0.06458333,69,74,0,1,1521
150.24374,0.18854167,50,68,0,1,1522
150.24374,0.059375,60,70,0,1,1523
150.24687,0.078125,71,84,0,1,1524
150.24896,0.083333336,57,70,0,1,1525
150.37917,0.125,72,84,0,1,1526
150.43333,0.3375,50,3,0,1,1527
150.49791,0.098958336,69,77,0,1,1528
150.61458,0.07395833,66,79,0,1,1529
150.74687,0.039583333,59,67,0,1,1530
150.75209,0.071875,67,79,0,1,1531
150.75833,0.055208333,55,64,0,1,1532
150.89272,0.10625,78,79,0,1,1533
151.01042,0.14270833,79,87,0,1,1534
151.13853,0.096875,78,84,0,1,1535
151.2552,0.055208333,43,73,0,1,1536
151.26353,0.08229167,79,90,0,1,1537
151.38437,0.058333334,55,68,0,1,1538
151.38542,0.088541664,74,75,0,1,1539
151.5125,0.038541667,71,69,0,1,1540
151.51666,0.048958335,54,64,0,1,1541
151.62813,0.041666668,67,74,0,1,1542
151.63437,0.034375,55,67,0,1,1543
151.7573,0.040625,69,80,0,1,1544
151.76666,0.046875,54,63,0,1,1545
151.88959,0.092708334,80,86,0,1,1546
152.00833,0.13958333,81,90,0,1,1547
152.13437,0.13854167,80,86,0,1,1548
152.26146,0.07083333,42,71,0,1,1549
152.26459,0.15625,81,91,0,1,1550
152.39062,0.09791667,54,66,0,1,1551
152.39479,0.13125,78,80,0,1,1552
152.50937,0.07604167,52,67,0,1,1553
152.51772,0.0625,74,79,0,1,1554
152.64479,0.046875,54,62,0,1,1555
152.65729,0.055208333,69,73,0,1,1556
152.75626,0.04375,55,58,0,1,1557
152.76979,0.034375,71,67,0,1,1558
152.91978,0.121875,82,81,0,1,1559
153.03021,0.140625,83,85,0,1,1560
153.1625,0.08020833,82,85,0,1,1561
153.27916,0.14375,83,91,0,1,1562
153.29688,0.045833334,43,64,0,1,1563
153.41354,0.08020833,79,78,0,1,1564
153.42397,0.042708334,55,63,0,1,1565
153.54167,0.041666668,74,75,0,1,1566
153.54478,0.09791667,54,71,0,1,1567
153.62813,0.058333334,55,61,0,1,1568
153.675,0.057291668,71,66,0,1,1569
153.71042,0.215625,48,62,0,1,1570
153.73438,0.22083333,52,64,0,1,1571
153.79062,0.14270833,57,78,0,1,1572
153.80624,0.088541664,75,79,0,1,1573
153.94063,0.134375,76,76,0,1,1574
154.0677,0.07604167,72,72,0,1,1575
154.17917,0.06979167,69,70,0,1,1576
154.21042,0.57708335,50,68,0,1,1577
154.27812,0.114583336,57,76,0,1,1578
154.3,0.06979167,60,78,0,1,1579
154.3052,0.08958333,71,79,0,1,1580
154.43541,0.104166664,72,79,0,1,1581
154.5375,0.108333334,69,70,0,1,1582
154.65834,0.079166666,66,74,0,1,1583
154.77812,0.08958333,59,70,0,1,1584
154.78021,0.030208332,67,76,0,1,1585
154.78645,0.17083333,55,64,0,1,1586
155.02188,0.08020833,79,63,0,1,1587
155.18333,0.11770833,83,58,0,1,1588
155.33958,0.041666668,81,55,0,1,1589
155.46875,0.040625,79,53,0,1,1590
155.58229,0.16041666,78,68,0,1,1591
155.71042,0.12083333,76,68,0,1,1592
155.83333,0.075,74,76,0,1,1593
155.95625,0.078125,72,79,0,1,1594
156.07812,0.125,71,81,0,1,1595
156.21146,0.08125,69,81,0,1,1596
156.33855,0.08541667,67,76,0,1,1597
156.46771,0.109375,66,77,0,1,1598
156.58855,0.07604167,64,75,0,1,1599
156.71355,0.08125,62,74,0,1,1600
156.84895,0.06875,61,70,0,1,1601
157.00104,1.1895833,60,73,0,1,1602
157.56354,0.1625,45,38,0,1,1603
157.56667,0.09791667,57,49,0,1,1604
158.1177,0.078125,54,49,0,1,1605
158.11874,0.17708333,42,49,0,1,1606
158.25209,0.12291667,62,58,0,1,1607
158.3875,0.11145833,64,59,0,1,1608
158.50209,0.10625,62,66,0,1,1609
158.6198,0.16770834,66,76,0,1,1610
158.62604,0.41770834,50,49,0,1,1611
158.64272,0.071875,38,51,0,1,1612
158.73958,0.114583336,64,68,0,1,1613
158.85417,0.058333334,62,69,0,1,1614
158.96458,0.063541666,60,72,0,1,1615
159.08855,0.04375,43,57,0,1,1616
159.10208,0.91041666,60,65,0,1,1617
159.10312,0.47395834,57,75,0,1,1618
159.23854,0.046875,55,59,0,1,1619
159.35728,0.06979167,54,62,0,1,1620
159.48228,0.07083333,55,66,0,1,1621
159.6,0.084375,54,61,0,1,1622
159.72708,0.06458333,55,62,0,1,1623
159.84584,0.09791667,54,58,0,1,1624
159.975,0.035416666,55,60,0,1,1625
160.08333,0.038541667,43,62,0,1,1626
160.0875,0.034375,55,71,0,1,1627
160.09062,0.035416666,59,72,0,1,1628
160.26562,0.109375,67,66,0,1,1629
160.38126,0.1,66,66,0,1,1630
160.5073,0.036458332,67,67,0,1,1631
160.6198,0.034375,62,66,0,1,1632
160.74896,0.092708334,74,66,0,1,1633
160.87291,0.10104167,73,64,0,1,1634
161.00104,0.036458332,74,60,0,1,1635
161.11041,0.035416666,71,66,0,1,1636
161.24687,0.094791666,79,60,0,1,1637
161.36874,0.08541667,78,60,0,1,1638
161.49896,0.0375,79,63,0,1,1639
161.62709,0.0375,74,58,0,1,1640
161.76875,0.084375,83,54,0,1,1641
161.87709,0.10104167,81,58,0,1,1642
162.00626,0.0625,83,56,0,1,1643
162.16458,0.14479166,79,38,0,1,1644
163.12291,0.4625,67,79,0,1,1645
163.12604,0.40625,62,79,0,1,1646
163.12709,0.048958335,43,66,0,1,1647
163.12709,0.38541666,58,75,0,1,1648
163.25313,0.060416665,55,72,0,1,1649
163.38853,0.067708336,54,72,0,1,1650
163.51875,0.046875,55,72,0,1,1651
163.64062,0.20208333,43,78,0,1,1652
163.91145,0.1125,67,63,0,1,1653
164.05,0.071875,62,72,0,1,1654
164.17291,0.06875,70,78,0,1,1655
164.29897,0.075,67,75,0,1,1656
164.41978,0.114583336,74,77,0,1,1657
164.54271,0.077083334,70,84,0,1,1658
164.65938,0.12291667,79,89,0,1,1659
164.78125,0.0875,74,78,0,1,1660
164.90521,0.078125,70,74,0,1,1661
165.03542,0.036458332,67,71,0,1,1662
165.15938,0.044791665,43,61,0,1,1663
165.16562,0.5,73,89,0,1,1664
165.16875,0.44270834,69,79,0,1,1665
165.17291,0.5864583,64,79,0,1,1666
165.27292,0.071875,55,72,0,1,1667
165.41562,0.08645833,54,70,0,1,1668
165.54062,0.063541666,55,69,0,1,1669
165.66042,0.23020834,43,76,0,1,1670
165.94896,0.140625,69,68,0,1,1671
166.07187,0.07604167,64,74,0,1,1672
166.18959,0.06666667,73,78,0,1,1673
166.30417,0.08020833,69,78,0,1,1674
166.425,0.10625,76,84,0,1,1675
166.55208,0.08645833,73,88,0,1,1676
166.67604,0.12708333,81,94,0,1,1677
166.79478,0.09583333,76,82,0,1,1678
166.925,0.079166666,73,74,0,1,1679
167.04375,0.032291666,69,71,0,1,1680
167.16978,0.4125,74,85,0,1,1681
167.17188,0.303125,69,79,0,1,1682
167.17397,0.059375,41,71,0,1,1683
167.17708,0.56666666,65,78,0,1,1684
167.30624,0.06458333,53,72,0,1,1685
167.42813,0.044791665,52,72,0,1,1686
167.54897,0.045833334,53,70,0,1,1687
167.66562,0.16666667,41,76,0,1,1688
167.97084,0.11770833,69,62,0,1,1689
168.08125,0.071875,65,68,0,1,1690
168.20938,0.06666667,74,80,0,1,1691
168.34062,0.12604167,69,73,0,1,1692
168.46355,0.13125,77,87,0,1,1693
168.59166,0.092708334,74,81,0,1,1694
168.7125,0.1625,81,91,0,1,1695
168.84062,0.11145833,77,82,0,1,1696
168.95938,0.067708336,74,75,0,1,1697
169.07083,0.04375,69,72,0,1,1698
169.21562,0.039583333,41,59,0,1,1699
169.21666,0.51354164,71,81,0,1,1700
169.24687,0.06979167,67,50,0,1,1701
169.25417,0.53541666,62,50,0,1,1702
169.31667,0.32604167,67,34,0,1,1703
169.33542,0.07395833,53,69,0,1,1704
169.45312,0.057291668,52,75,0,1,1705
169.58333,0.052083332,53,68,0,1,1706
169.70209,0.109375,41,67,0,1,1707
170.01042,0.098958336,67,65,0,1,1708
170.13437,0.061458334,62,62,0,1,1709
170.2625,0.035416666,71,62,0,1,1710
170.37604,0.078125,67,66,0,1,1711
170.50626,0.121875,74,72,0,1,1712
170.62187,0.09375,71,69,0,1,1713
170.73854,0.11666667,79,76,0,1,1714
170.8677,0.096875,74,66,0,1,1715
170.98958,0.033333335,71,66,0,1,1716
171.11458,0.036458332,67,64,0,1,1717
171.22812,0.06458333,40,59,0,1,1718
171.23958,0.378125,67,54,0,1,1719
171.24583,0.7083333,64,53,0,1,1720
171.24583,0.46458334,72,62,0,1,1721
171.36354,0.08125,52,57,0,1,1722
171.48854,0.060416665,50,64,0,1,1723
171.63333,0.08229167,52,54,0,1,1724
171.7625,0.12083333,40,59,0,1,1725
172.04897,0.088541664,67,60,0,1,1726
172.1823,0.079166666,64,63,0,1,1727
172.30624,0.046875,72,64,0,1,1728
172.43646,0.059375,67,59,0,1,1729
172.55417,0.15520833,76,71,0,1,1730
172.68541,0.108333334,72,68,0,1,1731
172.80417,0.16354166,79,70,0,1,1732
172.92813,0.094791666,76,66,0,1,1733
173.05,0.058333334,72,66,0,1,1734
173.19583,0.039583333,67,49,0,1,1735
173.37187,0.640625,70,62,0,1,1736
173.37813,0.7395833,62,58,0,1,1737
173.39479,0.048958335,38,39,0,1,1738
173.39688,0.43125,65,37,0,1,1739
173.5552,0.08229167,50,42,0,1,1740
173.67604,0.079166666,49,56,0,1,1741
173.80624,0.1375,50,56,0,1,1742
173.93124,0.1375,38,62,0,1,1743
174.20729,0.109375,65,54,0,1,1744
174.34584,0.071875,62,59,0,1,1745
174.475,0.04375,70,61,0,1,1746
174.59375,0.09791667,65,66,0,1,1747
174.71458,0.121875,74,65,0,1,1748
174.8375,0.10729167,70,65,0,1,1749
174.96562,0.059375,77,65,0,1,1750
175.10312,0.078125,74,73,0,1,1751
175.22604,0.14375,82,86,0,1,1752
175.3677,0.14895834,81,84,0,1,1753
175.53958,0.20104167,80,80,0,1,1754
175.5625,0.15416667,40,47,0,1,1756
175.5625,0.125,52,43,0,1,1755
175.7573,0.14375,83,57,0,1,1757
175.92917,0.075,77,68,0,1,1758
176.04791,0.14479166,83,66,0,1,1759
176.18124,0.10520833,76,73,0,1,1760
176.31354,0.128125,83,76,0,1,1761
176.44167,0.10520833,74,69,0,1,1762
176.46042,0.246875,56,64,0,1,1763
176.56876,0.11354167,83,75,0,1,1764
176.69792,0.54583335,72,70,0,1,1765
176.70209,0.17916666,57,64,0,1,1766
176.81876,0.098958336,60,64,0,1,1767
176.93333,0.14375,55,69,0,1,1768
177.06459,0.08020833,60,68,0,1,1769
177.18959,0.08541667,54,65,0,1,1770
177.19687,0.08958333,81,78,0,1,1771
177.31354,0.078125,60,60,0,1,1772
177.44792,0.042708334,79,67,0,1,1773
177.46458,0.18333334,51,59,0,1,1774
177.48958,0.114583336,81,74,0,1,1775
177.60417,0.06875,60,52,0,1,1776
177.60728,0.044791665,79,75,0,1,1777
177.76562,0.62083334,50,52,0,1,1778
177.76875,0.09375,78,70,0,1,1779
177.89479,0.110416666,81,73,0,1,1780
178.04375,0.092708334,75,60,0,1,1781
178.14688,0.12291667,81,67,0,1,1782
178.28958,0.08541667,74,62,0,1,1783
178.41562,0.10625,81,62,0,1,1784
178.54584,0.065625,72,54,0,1,1785
178.54897,0.28645834,54,53,0,1,1786
178.64272,0.11354167,81,66,0,1,1787
178.7875,0.5208333,70,66,0,1,1788
178.79584,0.21875,55,56,0,1,1789
178.925,0.10104167,58,57,0,1,1790
179.04584,0.114583336,53,59,0,1,1791
179.15416,0.08125,58,57,0,1,1792
179.28958,0.14895834,52,54,0,1,1793
179.29584,0.17395833,79,60,0,1,1794
179.39166,0.06979167,58,52,0,1,1795
179.54478,0.054166667,77,61,0,1,1796
179.54688,0.075,50,55,0,1,1797
179.6198,0.07395833,79,62,0,1,1798
179.68541,0.0875,58,57,0,1,1799
179.69376,0.07395833,77,59,0,1,1800
179.8177,0.084375,76,64,0,1,1801
179.85104,0.78125,48,54,0,1,1802
179.96979,0.10729167,79,63,0,1,1803
180.08229,0.10625,74,64,0,1,1804
180.21875,0.09791667,79,74,0,1,1805
180.35,0.10104167,72,73,0,1,1806
180.47812,0.09791667,79,73,0,1,1807
180.60521,0.11145833,70,73,0,1,1808
180.61041,0.22708334,52,64,0,1,1809
180.72188,0.46145833,79,72,0,1,1810
180.82709,0.060416665,53,61,0,1,1811
180.87291,0.340625,69,64,0,1,1812
180.99583,0.11354167,60,66,0,1,1813
181.10521,0.140625,58,66,0,1,1814
181.23228,0.16458334,57,78,0,1,1815
181.3625,0.19375,58,78,0,1,1816
181.50313,0.15,60,73,0,1,1817
181.6375,0.07604167,62,74,0,1,1818
181.75417,0.039583333,64,67,0,1,1819
181.88333,0.15520833,65,76,0,1,1820
182.02083,0.0625,72,65,0,1,1821
182.14375,0.10104167,81,78,0,1,1822
182.14896,0.07604167,69,67,0,1,1823
182.2448,0.061458334,83,81,0,1,1824
182.26875,0.058333334,72,62,0,1,1825
182.3677,0.040625,84,82,0,1,1826
182.38437,0.175,65,72,0,1,1827
182.51459,0.06979167,72,61,0,1,1828
182.62604,0.06979167,69,68,0,1,1829
182.63646,0.045833334,84,79,0,1,1830
182.76666,0.08541667,72,59,0,1,1831
182.90625,0.21354167,64,56,0,1,1832
182.91145,0.51979166,84,86,0,1,1833
183.05,0.06458333,72,53,0,1,1834
183.2125,0.06979167,67,39,0,1,1835
183.31667,0.059375,72,51,0,1,1836
183.44376,0.077083334,79,68,0,1,1837
183.45312,0.2125,64,46,0,1,1838
183.57603,0.0625,72,47,0,1,1839
183.68646,0.04375,67,54,0,1,1840
183.81041,0.061458334,72,62,0,1,1841
183.94687,0.06666667,77,78,0,1,1842
183.96771,0.07083333,62,60,0,1,1843
184.02292,0.065625,79,78,0,1,1844
184.07292,0.058333334,71,58,0,1,1845
184.11563,0.065625,77,72,0,1,1846
184.17708,0.06666667,79,78,0,1,1847
184.2125,0.05,67,53,0,1,1848
184.24896,0.06666667,77,66,0,1,1849
184.31146,0.0625,76,75,0,1,1850
184.33438,0.051041666,71,57,0,1,1851
184.39688,0.09791667,77,78,0,1,1852
184.49583,0.11875,62,56,0,1,1853
184.49896,0.290625,79,78,0,1,1854
184.63646,0.053125,71,38,0,1,1855
184.7552,0.25625,77,81,0,1,1856
184.75937,0.054166667,67,50,0,1,1857
184.87604,0.071875,71,55,0,1,1858
185.02812,0.39479166,75,73,0,1,1859
185.03542,0.083333336,60,50,0,1,1860
185.18124,0.06875,72,54,0,1,1861
185.31667,0.075,67,51,0,1,1862
185.45416,0.05625,72,48,0,1,1863
185.58542,0.14270833,76,51,0,1,1864
185.59688,0.203125,60,42,0,1,1865
185.72188,0.055208333,72,44,0,1,1866
185.86458,0.077083334,67,36,0,1,1867
185.96146,0.046875,72,52,0,1,1868
186.11458,0.2,60,36,0,1,1869
186.25833,0.05625,67,44,0,1,1870
186.38333,0.08020833,64,48,0,1,1871
186.40208,0.0625,76,54,0,1,1872
186.5052,0.0375,77,58,0,1,1873
186.5073,0.067708336,67,46,0,1,1874
186.62604,0.036458332,79,64,0,1,1875
186.64896,0.12083333,60,48,0,1,1876
186.77083,0.08125,67,40,0,1,1877
186.88853,0.0625,64,47,0,1,1879
186.88853,0.039583333,79,65,0,1,1878
187.01146,0.110416666,67,49,0,1,1880
187.1625,0.228125,59,47,0,1,1881
187.18541,0.50416666,79,60,0,1,1882
187.31876,0.06666667,67,45,0,1,1883
187.41562,0.07083333,62,51,0,1,1884
187.55417,0.072916664,67,44,0,1,1885
187.66875,0.09791667,74,57,0,1,1886
187.6802,0.1625,59,46,0,1,1887
187.8052,0.065625,67,48,0,1,1888
187.90625,0.040625,62,53,0,1,1889
188.03125,0.072916664,67,54,0,1,1890
188.17397,0.0625,72,71,0,1,1891
188.175,0.1875,57,55,0,1,1892
188.24167,0.047916666,74,67,0,1,1893
188.30624,0.125,66,57,0,1,1894
188.32812,0.058333334,72,69,0,1,1895
188.38959,0.07083333,74,74,0,1,1896
188.44687,0.114583336,60,50,0,1,1897
188.46562,0.067708336,72,69,0,1,1898
188.52188,0.06666667,71,72,0,1,1899
188.58022,0.10625,66,41,0,1,1900
188.62083,0.10729167,72,76,0,1,1901
188.71979,0.26041666,57,56,0,1,1902
188.72917,0.259375,74,72,0,1,1903
188.82603,0.12083333,66,60,0,1,1904
188.95312,0.09375,60,64,0,1,1905
188.96355,0.215625,72,76,0,1,1906
189.08542,0.088541664,66,64,0,1,1907
189.23334,0.08125,71,83,0,1,1908
189.2375,0.165625,55,57,0,1,1909
189.2375,0.055208333,67,58,0,1,1910
189.36563,0.0625,67,69,0,1,1911
189.49687,0.08125,72,74,0,1,1912
189.60625,0.08125,69,76,0,1,1913
189.72708,0.140625,74,82,0,1,1914
189.84688,0.10625,71,74,0,1,1915
189.96146,0.072916664,76,79,0,1,1916
190.09895,0.0625,72,79,0,1,1917
190.21355,0.24791667,77,88,0,1,1918
190.21771,0.38645834,74,83,0,1,1919
190.22708,0.05,43,66,0,1,1920
190.35,0.077083334,55,65,0,1,1921
190.46979,0.134375,54,71,0,1,1922
190.61354,0.06458333,55,62,0,1,1923
190.71666,0.077083334,86,92,0,1,1924
190.71875,0.10625,77,81,0,1,1925
190.73228,0.04375,57,69,0,1,1926
190.85104,0.077083334,55,73,0,1,1927
190.96771,0.072916664,54,66,0,1,1928
191.09479,0.072916664,55,64,0,1,1929
191.22292,0.13958333,43,71,0,1,1930
191.22917,0.14479166,76,89,0,1,1931
191.37187,0.128125,72,83,0,1,1932
191.49791,0.110416666,77,81,0,1,1933
191.61667,0.06979167,74,81,0,1,1934
191.73958,0.1375,79,87,0,1,1935
191.85417,0.098958336,76,82,0,1,1936
191.97812,0.14270833,81,87,0,1,1937
192.10521,0.0625,77,84,0,1,1938
192.21771,0.047916666,43,62,0,1,1939
192.22604,0.428125,79,91,0,1,1940
192.23228,0.19583334,76,84,0,1,1941
192.34479,0.067708336,55,68,0,1,1942
192.46562,0.109375,54,69,0,1,1943
192.59479,0.055208333,55,64,0,1,1944
192.71562,0.051041666,76,81,0,1,1945
192.71666,0.054166667,84,91,0,1,1946
192.71875,0.05,57,70,0,1,1947
192.84479,0.06666667,55,70,0,1,1948
192.96458,0.05,54,63,0,1,1949
193.09584,0.053125,55,60,0,1,1950
193.2125,0.10729167,71,69,0,1,1951
193.22292,0.094791666,43,61,0,1,1952
193.35728,0.067708336,67,65,0,1,1953
193.48125,0.12604167,72,64,0,1,1954
193.60312,0.046875,69,62,0,1,1955
193.72708,0.115625,74,68,0,1,1956
193.84375,0.088541664,71,65,0,1,1957
193.96146,0.072916664,76,68,0,1,1958
194.09895,0.044791665,72,62,0,1,1959
194.19583,0.051041666,55,59,0,1,1960
194.21355,0.22708334,77,69,0,1,1961
194.21666,0.34375,74,64,0,1,1962
194.33022,0.08125,67,62,0,1,1963
194.46042,0.115625,66,61,0,1,1964
194.57187,0.119791664,67,64,0,1,1965
194.70416,0.057291668,69,69,0,1,1966
194.71355,0.175,86,76,0,1,1967
194.71979,0.18333334,77,52,0,1,1968
194.84271,0.08541667,67,63,0,1,1969
194.97292,0.07083333,66,57,0,1,1970
195.08438,0.041666668,67,62,0,1,1971
195.20833,0.09166667,76,70,0,1,1972
195.21771,0.088541664,55,62,0,1,1973
195.34062,0.06875,72,70,0,1,1974
195.47708,0.09375,77,67,0,1,1975
195.58022,0.11666667,74,71,0,1,1976
195.71458,0.13958333,79,76,0,1,1977
195.83022,0.10625,76,70,0,1,1978
195.95729,0.1625,81,67,0,1,1979
196.05833,0.14895834,77,59,0,1,1980
196.1948,0.041666668,55,59,0,1,1981
196.20416,0.43125,79,72,0,1,1982
196.21042,0.20208333,76,66,0,1,1983
196.34375,0.055208333,67,38,0,1,1984
196.44376,0.15833333,66,69,0,1,1985
196.58229,0.063541666,67,57,0,1,1986
196.70103,0.134375,84,80,0,1,1987
196.71355,0.20520833,76,64,0,1,1988
196.71666,0.05,69,66,0,1,1989
196.83958,0.083333336,67,72,0,1,1990
196.95625,0.13020833,66,71,0,1,1991
197.07812,0.052083332,67,69,0,1,1992
197.21771,0.08020833,55,67,0,1,1993
197.22604,0.1375,83,94,0,1,1994
197.23334,0.045833334,74,82,0,1,1995
197.35312,0.077083334,79,81,0,1,1996
197.46979,0.08125,78,85,0,1,1997
197.59271,0.088541664,79,87,0,1,1998
197.72395,0.11770833,84,94,0,1,1999
197.83646,0.084375,79,79,0,1,2000
197.95,0.05,76,71,0,1,2001
198.07083,0.06666667,72,74,0,1,2002
198.19687,0.065625,79,73,0,1,2003
198.325,0.07604167,67,81,0,1,2004
198.32603,0.11145833,55,72,0,1,2005
198.45103,0.07395833,66,79,0,1,2006
198.45938,0.13645834,54,69,0,1,2007
198.57292,0.114583336,67,85,0,1,2008
198.58022,0.08645833,55,69,0,1,2009
198.7,0.052083332,60,77,0,1,2010
198.70416,0.104166664,72,92,0,1,2011
198.81876,0.08541667,55,67,0,1,2012
198.82187,0.1,67,80,0,1,2013
198.95416,0.060416665,52,70,0,1,2014
198.95938,0.08125,64,71,0,1,2015
199.1,0.08645833,60,72,0,1,2016
199.10208,0.079166666,48,69,0,1,2017
199.25937,0.05,67,76,0,1,2018
199.26146,0.43333334,43,65,0,1,2019
199.4927,0.052083332,55,60,0,1,2020
199.61563,0.1125,57,75,0,1,2021
199.7552,0.0625,59,68,0,1,2022
199.8677,0.0875,60,78,0,1,2023
199.99791,0.109375,62,82,0,1,2024
200.11458,0.1375,64,82,0,1,2025
200.23541,0.08125,66,81,0,1,2026
200.36563,0.0875,67,82,0,1,2027
200.48541,0.1125,69,86,0,1,2028
200.59792,0.06666667,71,84,0,1,2029
200.73021,0.10104167,72,85,0,1,2030
200.84375,0.123958334,74,84,0,1,2031
200.95938,0.13125,76,83,0,1,2032
201.08229,0.1,78,79,0,1,2033
201.22084,0.057291668,79,76,0,1,2034
201.34479,0.06979167,80,79,0,1,2035
201.47395,0.12291667,81,77,0,1,2036
201.59584,0.061458334,77,78,0,1,2037
201.73647,0.033333335,74,65,0,1,2038
201.87291,0.09166667,76,84,0,1,2039
202.01875,0.098958336,77,69,0,1,2040
202.14792,0.08125,74,67,0,1,2041
202.3,0.036458332,71,63,0,1,2042
202.49167,0.4625,64,76,0,1,2043
202.5375,0.052083332,48,65,0,1,2044
202.53854,0.40520832,67,69,0,1,2045
202.58542,0.371875,72,85,0,1,2046
202.6802,0.058333334,60,65,0,1,2047
202.80833,0.041666668,59,70,0,1,2048
202.94063,0.040625,60,68,0,1,2049
203.0552,0.22291666,48,65,0,1,2050
203.36458,0.077083334,72,58,0,1,2051
203.47812,0.07395833,71,68,0,1,2052
203.59895,0.11875,74,74,0,1,2053
203.71875,0.08958333,72,79,0,1,2054
203.83855,0.05625,76,78,0,1,2055
203.95,0.11666667,74,80,0,1,2056
204.06667,0.092708334,77,83,0,1,2057
204.17813,0.10104167,76,82,0,1,2058
204.29584,0.14791666,79,75,0,1,2059
204.38959,0.10208333,77,76,0,1,2060
204.50626,0.072916664,69,72,0,1,2061
204.56354,0.325,74,72,0,1,2062
204.63853,0.47083333,81,72,0,1,2063
204.64375,0.28229168,77,70,0,1,2064
204.66354,0.24583334,53,51,0,1,2065
204.67708,0.33333334,41,47,0,1,2066
205.225,0.12604167,79,57,0,1,2067
205.34584,0.08541667,77,58,0,1,2068
205.46458,0.047916666,76,65,0,1,2069
205.58022,0.061458334,74,68,0,1,2070
205.69167,0.063541666,72,69,0,1,2071
205.76562,0.08125,74,72,0,1,2072
205.86041,0.0375,72,68,0,1,2073
205.90521,0.045833334,71,64,0,1,2074
205.98228,0.038541667,52,55,0,1,2075
206.00626,0.13958333,72,78,0,1,2076
206.12917,0.08229167,76,75,0,1,2077
206.26042,0.038541667,53,64,0,1,2078
206.26042,0.08541667,74,76,0,1,2079
206.38959,0.10208333,77,75,0,1,2080
206.52292,0.075,71,66,0,1,2081
206.53542,0.05,55,39,0,1,2082
206.6177,0.055208333,74,63,0,1,2083
206.79688,0.40520832,64,69,0,1,2084
206.80208,0.05,48,64,0,1,2085
206.83333,0.35833332,67,75,0,1,2086
206.88126,0.33541667,72,78,0,1,2087
206.9375,0.047916666,60,63,0,1,2088
207.05313,0.041666668,59,69,0,1,2089
207.17604,0.0375,60,65,0,1,2090
207.29791,0.22916667,48,68,0,1,2091
207.60104,0.09375,72,64,0,1,2092
207.72188,0.08645833,71,69,0,1,2093
207.82916,0.12291667,74,76,0,1,2094
207.94792,0.103125,72,81,0,1,2095
208.07083,0.048958335,76,78,0,1,2096
208.18541,0.08541667,74,81,0,1,2097
208.3,0.098958336,77,80,0,1,2098
208.40625,0.096875,76,79,0,1,2099
208.52605,0.19791667,79,78,0,1,2100
208.62083,0.092708334,77,71,0,1,2101
208.71771,0.08125,69,67,0,1,2102
208.7875,0.328125,74,76,0,1,2103
208.85834,0.28854167,77,74,0,1,2104
208.875,0.45520833,81,80,0,1,2105
208.88959,0.28958333,41,47,0,1,2106
208.89272,0.25520834,53,50,0,1,2107
209.41875,0.121875,79,55,0,1,2108
209.55313,0.052083332,77,53,0,1,2109
209.65938,0.05,76,62,0,1,2110
209.77812,0.067708336,74,65,0,1,2111
209.90312,0.039583333,72,64,0,1,2112
209.96355,0.08125,74,65,0,1,2113
210.05417,0.035416666,72,69,0,1,2114
210.1125,0.041666668,71,53,0,1,2115
210.19376,0.053125,52,64,0,1,2116
210.19792,0.13333334,72,72,0,1,2117
210.32916,0.13020833,76,71,0,1,2118
210.45625,0.13333334,53,63,0,1,2119
210.4625,0.125,74,68,0,1,2120
210.59271,0.15416667,77,64,0,1,2121
210.72188,0.08958333,71,63,0,1,2122
210.73125,0.040625,55,46,0,1,2123
210.85521,0.1125,74,57,0,1,2124
210.96355,0.184375,60,45,0,1,2125
210.98647,0.044791665,72,60,0,1,2126
211.13853,0.053125,67,40,0,1,2127
211.23541,0.04375,74,56,0,1,2128
211.24791,0.110416666,64,48,0,1,2129
211.29167,0.08229167,72,72,0,1,2130
211.3698,0.07083333,67,42,0,1,2131
211.3875,0.044791665,71,63,0,1,2132
211.475,0.054166667,72,77,0,1,2133
211.50833,0.071875,60,53,0,1,2134
211.63126,0.054166667,67,50,0,1,2135
211.72604,0.06875,79,75,0,1,2136
211.76875,0.041666668,64,50,0,1,2137
211.89062,0.071875,67,50,0,1,2138
212.03645,0.48020834,77,61,0,1,2139
212.0698,0.24375,58,39,0,1,2140
212.20103,0.077083334,67,32,0,1,2141
212.3073,0.271875,60,41,0,1,2142
212.41771,0.11875,67,43,0,1,2143
212.56876,0.203125,76,48,0,1,2144
212.57603,0.253125,58,44,0,1,2145
212.70625,0.071875,67,36,0,1,2146
212.82083,0.21666667,60,37,0,1,2147
212.95,0.06979167,67,42,0,1,2148
213.09062,0.23229167,58,49,0,1,2149
213.19896,0.07083333,67,46,0,1,2150
213.34271,0.21979167,76,69,0,1,2151
213.35417,0.22395833,60,40,0,1,2152
213.49687,0.0625,67,46,0,1,2153
213.62187,0.146875,58,61,0,1,2154
213.62604,0.47708333,84,75,0,1,2155
213.7625,0.048958335,67,46,0,1,2156
213.87083,0.21041666,76,72,0,1,2157
213.88959,0.15520833,60,49,0,1,2158
214.03021,0.044791665,67,54,0,1,2159
214.17917,0.53333336,79,70,0,1,2160
214.18646,0.25520834,57,49,0,1,2161
214.3052,0.06979167,67,48,0,1,2162
214.44583,0.16458334,60,42,0,1,2163
214.58958,0.06458333,64,47,0,1,2164
214.73021,0.15729167,77,63,0,1,2165
214.73854,0.253125,57,40,0,1,2166
214.87709,0.078125,65,40,0,1,2167
214.98541,0.06979167,60,48,0,1,2168
215.12083,0.058333334,65,45,0,1,2169
215.25313,0.10729167,57,47,0,1,2170
215.33333,0.07083333,65,46,0,1,2171
215.48334,0.17395833,77,66,0,1,2172
215.48958,0.059375,60,48,0,1,2173
215.61563,0.057291668,65,49,0,1,2174
215.73854,0.27291667,79,73,0,1,2175
215.75937,0.196875,57,45,0,1,2176
215.84271,0.11875,65,45,0,1,2177
215.99583,0.28333333,81,74,0,1,2178
216.00626,0.052083332,60,47,0,1,2179
216.1177,0.10625,65,56,0,1,2180
216.29062,1.05,82,66,0,1,2181
216.30937,0.26875,55,41,0,1,2182
216.46355,0.08645833,64,39,0,1,2183
216.59166,0.09375,58,40,0,1,2184
216.73228,0.07604167,64,34,0,1,2185
216.8698,0.24791667,55,37,0,1,2186
216.87187,0.39166668,73,47,0,1,2187
216.96979,0.08229167,64,36,0,1,2188
217.11041,0.078125,58,49,0,1,2189
217.23647,0.083333336,64,50,0,1,2190
217.375,0.19791667,55,59,0,1,2191
217.4927,0.125,64,58,0,1,2192
217.63333,0.29270834,76,78,0,1,2193
217.64272,0.13958333,61,48,0,1,2194
217.76042,0.103125,64,56,0,1,2195
217.88646,0.271875,77,84,0,1,2196
217.91458,0.23541667,55,48,0,1,2197
218.00833,0.0625,64,60,0,1,2198
218.14375,0.25520834,79,87,0,1,2199
218.15521,0.084375,61,59,0,1,2200
218.28334,0.110416666,64,64,0,1,2201
218.46458,0.51145834,80,76,0,1,2202
218.47292,0.20625,53,49,0,1,2203
218.61147,0.055208333,62,49,0,1,2204
218.73125,0.098958336,56,45,0,1,2205
218.87291,0.05,62,49,0,1,2206
219.02605,0.12708333,71,53,0,1,2207
219.0375,0.28958333,53,42,0,1,2208
219.1323,0.06979167,62,37,0,1,2209
219.25313,0.0625,56,53,0,1,2210
219.38437,0.0625,62,57,0,1,2211
219.53229,0.20104167,52,66,0,1,2212
219.67084,0.053125,60,59,0,1,2213
219.80208,0.054166667,55,58,0,1,2214
219.81876,0.033333335,72,51,0,1,2215
219.9375,0.048958335,60,58,0,1,2216
220.08958,0.675,79,62,0,1,2217
220.09688,0.28541666,51,52,0,1,2218
220.22917,0.07395833,60,51,0,1,2219
220.34895,0.06666667,55,52,0,1,2220
220.49583,0.046875,60,62,0,1,2221
220.61874,0.14375,50,68,0,1,2222
220.75626,0.051041666,60,50,0,1,2223
220.83229,0.21666667,78,72,0,1,2224
220.85728,0.042708334,57,56,0,1,2225
220.97188,0.06875,60,61,0,1,2226
221.12604,0.78125,77,77,0,1,2227
221.14272,0.209375,47,57,0,1,2228
221.25626,0.05,55,53,0,1,2229
221.38333,0.051041666,50,63,0,1,2230
221.50313,0.055208333,55,57,0,1,2231
221.61667,0.17395833,48,62,0,1,2232
221.74583,0.048958335,60,63,0,1,2233
221.87083,0.047916666,55,60,0,1,2234
221.875,0.17395833,76,74,0,1,2235
221.98647,0.07604167,60,65,0,1,2236
222.1323,0.077083334,75,69,0,1,2237
222.14583,0.28958333,54,58,0,1,2238
222.21771,0.078125,77,75,0,1,2239
222.25833,0.048958335,60,52,0,1,2240
222.30833,0.079166666,75,71,0,1,2241
222.36147,0.078125,77,68,0,1,2242
222.38959,0.063541666,57,56,0,1,2243
222.45,0.08229167,75,62,0,1,2244
222.51562,0.078125,60,55,0,1,2245
222.53854,0.075,74,74,0,1,2246
222.6,0.07083333,75,67,0,1,2247
222.72084,0.0375,55,66,0,1,2248
222.72188,0.31041667,74,74,0,1,2249
222.83438,0.06979167,55,72,0,1,2250
222.97084,0.072916664,54,69,0,1,2251
223.07187,0.065625,55,67,0,1,2252
223.2125,0.084375,42,67,0,1,2253
223.23438,0.36770833,77,87,0,1,2254
223.23854,0.43854168,74,84,0,1,2256
223.23854,0.296875,83,91,0,1,2255
223.35,0.053125,43,74,0,1,2257
223.46979,0.084375,42,67,0,1,2258
223.5875,0.044791665,43,75,0,1,2259
223.70938,0.065625,31,86,0,1,2260
223.9875,0.071875,76,84,0,1,2261
223.98958,0.28020832,84,82,0,1,2262
224.24374,0.071875,76,81,0,1,2263
224.25104,0.08229167,72,64,0,1,2264
224.49687,0.07604167,78,76,0,1,2265
224.51042,0.03125,69,72,0,1,2266
224.59895,0.06875,79,69,0,1,2267
224.67291,0.10104167,78,78,0,1,2268
224.82292,0.12604167,79,75,0,1,2269
224.83125,0.075,54,75,0,1,2270
224.83646,0.13333334,71,83,0,1,2271
224.96666,0.057291668,55,68,0,1,2272
225.08542,0.06875,54,67,0,1,2273
225.19063,0.03125,55,69,0,1,2274
225.31876,0.060416665,42,76,0,1,2275
225.35,0.34791666,65,81,0,1,2276
225.35625,0.29166666,71,84,0,1,2277
225.35834,0.39895833,62,76,0,1,2278
225.47917,0.054166667,43,62,0,1,2279
225.59271,0.08020833,42,69,0,1,2280
225.70312,0.042708334,43,76,0,1,2281
225.83022,0.045833334,31,77,0,1,2282
226.11458,0.15208334,64,74,0,1,2283
226.11667,0.29479167,72,76,0,1,2284
226.3823,0.059375,64,74,0,1,2285
226.38853,0.046875,60,71,0,1,2286
226.64166,0.038541667,57,58,0,1,2287
226.64375,0.07083333,66,66,0,1,2288
226.73334,0.08125,67,60,0,1,2289
226.81876,0.042708334,66,73,0,1,2290
226.93437,0.56354165,59,66,0,1,2291
226.93854,0.60625,67,71,0,1,2292
227.99896,0.051041666,66,49,0,1,2293
228.0,0.50625,67,57,0,1,2294
228.61147,0.06666667,66,52,0,1,2295
228.6302,0.17916666,67,61,0,1,2296
229.10625,0.067708336,64,59,0,1,2297
229.16771,0.12291667,67,62,0,1,2298
229.25417,0.119791664,73,58,0,1,2299
229.32812,0.834375,76,57,0,1,2300
229.44792,0.114583336,33,46,0,1,2301
229.59062,0.128125,37,55,0,1,2302
229.71666,0.044791665,40,54,0,1,2303
229.82396,0.046875,45,61,0,1,2304
229.95833,0.4,49,54,0,1,2305
230.08438,0.21979167,52,55,0,1,2306
230.20103,0.08541667,57,56,0,1,2307
230.33333,0.29583332,45,55,0,1,2308
230.50313,0.061458334,67,61,0,1,2309
230.62083,0.125,69,72,0,1,2310
230.74687,0.123958334,73,81,0,1,2311
230.87187,0.040625,76,76,0,1,2312
231.01979,0.11770833,79,84,0,1,2313
231.1323,0.128125,81,84,0,1,2314
231.25937,0.125,85,87,0,1,2315
231.38646,0.17708333,88,84,0,1,2316
231.40105,0.084375,45,54,0,1,2317
231.40625,0.34791666,57,47,0,1,2318
231.52916,0.12083333,86,78,0,1,2319
231.63959,0.121875,85,80,0,1,2320
231.76042,0.078125,82,73,0,1,2321
231.8802,0.061458334,81,75,0,1,2322
232.01146,0.14270833,79,74,0,1,2323
232.12604,0.05,61,52,0,1,2324
232.1302,0.039583333,57,47,0,1,2325
232.1375,0.10625,77,75,0,1,2326
232.2573,0.054166667,76,73,0,1,2327
232.39272,0.3625,62,53,0,1,2329
232.39272,0.12708333,79,79,0,1,2328
232.40312,0.21354167,50,50,0,1,2330
232.51875,0.110416666,77,73,0,1,2331
232.61667,0.32395834,50,2,0,1,2332
232.64896,0.08020833,76,65,0,1,2333
232.775,0.09375,77,64,0,1,2334
232.89272,0.061458334,76,62,0,1,2335
233.01772,0.09583333,77,69,0,1,2336
233.15625,0.075,79,66,0,1,2337
233.28334,0.033333335,77,70,0,1,2338
233.46458,0.054166667,64,65,0,1,2339
233.46458,0.425,65,69,0,1,2340
234.04375,0.04375,64,59,0,1,2341
234.0625,0.22604166,65,61,0,1,2342
234.51979,0.047916666,62,62,0,1,2343
234.60521,0.04375,65,50,0,1,2344
234.64375,0.0875,71,67,0,1,2345
234.75,1.1125,74,56,0,1,2346
234.80833,0.13541667,43,54,0,1,2347
234.96562,0.110416666,47,52,0,1,2348
235.08229,0.059375,50,58,0,1,2349
235.2125,0.036458332,55,57,0,1,2350
235.32916,0.578125,59,63,0,1,2351
235.46875,0.40520832,62,59,0,1,2352
235.5625,0.044791665,67,58,0,1,2353
235.71666,0.14791666,55,49,0,1,2354
235.86354,0.08541667,65,61,0,1,2355
235.98125,0.10520833,67,69,0,1,2356
236.10728,0.084375,71,73,0,1,2357
236.21771,0.03125,74,78,0,1,2358
236.35417,0.07604167,77,81,0,1,2359
236.47084,0.115625,79,78,0,1,2360
236.5875,0.11354167,83,79,0,1,2361
236.72812,0.146875,86,79,0,1,2362
236.74167,0.09375,43,43,0,1,2363
236.74687,0.47291666,55,31,0,1,2364
236.88542,0.13958333,84,67,0,1,2365
237.025,0.1125,83,60,0,1,2366
237.12917,0.0625,81,70,0,1,2367
237.25937,0.059375,79,71,0,1,2368
237.38646,0.13645834,77,73,0,1,2369
237.50313,0.10208333,76,73,0,1,2370
237.51666,0.045833334,55,43,0,1,2371
237.51875,0.048958335,59,47,0,1,2372
237.64583,0.067708336,74,69,0,1,2373
237.78125,0.1125,76,64,0,1,2374
237.79791,0.209375,60,34,0,1,2375
237.89375,0.35625,76,38,0,1,2376
237.90938,0.06458333,67,45,0,1,2377
238.0573,0.07083333,64,47,0,1,2378
238.17813,0.060416665,67,44,0,1,2379
238.31563,0.039583333,79,66,0,1,2380
238.3198,0.17916666,60,42,0,1,2381
238.45,0.094791666,67,35,0,1,2382
238.58125,0.039583333,79,59,0,1,2383
238.6,0.06875,64,41,0,1,2384
238.725,0.07395833,67,44,0,1,2385
238.8677,0.05,60,44,0,1,2386
238.8677,0.24479167,81,54,0,1,2387
239.01666,0.06458333,69,43,0,1,2388
239.14583,0.06979167,65,38,0,1,2389
239.2552,0.090625,83,66,0,1,2390
239.27605,0.06458333,69,41,0,1,2391
239.38126,0.146875,86,73,0,1,2392
239.39896,0.071875,60,52,0,1,2393
239.50417,0.14270833,84,75,0,1,2394
239.51979,0.06979167,69,36,0,1,2395
239.63126,0.11875,83,73,0,1,2396
239.63542,0.059375,65,47,0,1,2397
239.7427,0.084375,69,51,0,1,2398
239.75,0.09583333,81,69,0,1,2399
239.89166,0.0875,79,64,0,1,2400
239.90312,0.21875,60,36,0,1,2401
240.04271,0.07083333,67,41,0,1,2402
240.16042,0.096875,64,43,0,1,2403
240.28438,0.08125,67,49,0,1,2404
240.41875,0.088541664,79,67,0,1,2405
240.43124,0.090625,60,47,0,1,2406
240.52812,0.07395833,67,48,0,1,2407
240.55,0.088541664,76,61,0,1,2408
240.66458,0.08645833,79,66,0,1,2409
240.66771,0.06875,64,52,0,1,2410
240.78645,0.059375,76,64,0,1,2411
240.78854,0.057291668,67,46,0,1,2412
240.92604,0.14270833,81,60,0,1,2413
240.92813,0.0625,60,49,0,1,2414
241.05208,0.060416665,69,53,0,1,2415
241.18959,0.05625,65,61,0,1,2416
241.32187,0.05625,69,49,0,1,2417
241.35417,0.110416666,83,61,0,1,2418
241.45416,0.06458333,60,51,0,1,2419
241.475,0.16979167,86,72,0,1,2420
241.57603,0.09583333,69,37,0,1,2421
241.59792,0.140625,84,75,0,1,2422
241.71355,0.06979167,65,55,0,1,2423
241.72708,0.10625,83,73,0,1,2424
241.83958,0.052083332,69,45,0,1,2425
241.84688,0.067708336,81,69,0,1,2426
241.97395,0.079166666,64,48,0,1,2427
241.97812,0.034375,79,59,0,1,2428
241.98021,0.072916664,60,40,0,1,2429
242.2375,0.046875,88,66,0,1,2430
242.36147,0.13020833,86,72,0,1,2431
242.47604,0.123958334,84,77,0,1,2432
242.59688,0.07604167,83,76,0,1,2433
242.6948,0.209375,73,53,0,1,2434
242.72395,0.071875,81,78,0,1,2435
242.84792,0.06666667,79,76,0,1,2436
242.94896,0.06458333,77,83,0,1,2437
242.96146,0.123958334,74,65,0,1,2438
243.02396,0.079166666,79,70,0,1,2439
243.09792,0.034375,77,71,0,1,2440
243.23021,0.05,86,69,0,1,2441
243.35417,0.05,84,69,0,1,2442
243.4625,0.14479166,83,62,0,1,2443
243.5875,0.06666667,81,81,0,1,2444
243.7125,0.22291666,71,56,0,1,2445
243.71771,0.0625,79,77,0,1,2446
243.82916,0.067708336,77,82,0,1,2447
243.95522,0.058333334,76,78,0,1,2448
243.99583,0.09583333,72,69,0,1,2449
244.02188,0.08125,77,69,0,1,2450
244.09062,0.05,76,78,0,1,2451
244.2427,0.14375,84,82,0,1,2452
244.35938,0.14583333,83,75,0,1,2453
244.47292,0.12291667,81,74,0,1,2454
244.59271,0.055208333,79,79,0,1,2455
244.70938,0.06666667,77,81,0,1,2456
244.73647,0.1875,69,61,0,1,2457
244.83229,0.06458333,76,76,0,1,2458
244.92708,0.078125,74,82,0,1,2459
244.97292,0.4375,65,72,0,1,2460
244.99791,0.0875,76,74,0,1,2461
245.07812,0.06979167,74,75,0,1,2462
245.20729,0.16875,81,88,0,1,2463
245.33438,0.14375,79,81,0,1,2464
245.45833,0.121875,77,81,0,1,2465
245.58125,0.0625,76,77,0,1,2466
245.70729,0.06458333,74,72,0,1,2467
245.72084,0.045833334,66,56,0,1,2468
245.82812,0.088541664,72,72,0,1,2469
245.95209,0.044791665,71,73,0,1,2470
245.96771,0.057291668,55,55,0,1,2471
246.09271,0.08645833,67,53,0,1,2472
246.21875,0.11145833,66,59,0,1,2473
246.32187,0.036458332,67,66,0,1,2474
246.475,0.048958335,52,44,0,1,2475
246.475,0.040625,67,67,0,1,2476
246.59166,0.041666668,60,59,0,1,2477
246.72395,0.121875,59,58,0,1,2478
246.73125,0.048958335,67,59,0,1,2479
246.85938,0.077083334,60,52,0,1,2480
246.98854,0.24479167,69,54,0,1,2481
247.01146,0.178125,53,44,0,1,2482
247.12604,0.08229167,60,52,0,1,2483
247.27396,0.08229167,59,47,0,1,2484
247.40625,0.077083334,60,54,0,1,2485
247.41875,0.061458334,71,62,0,1,2486
247.54897,0.190625,53,50,0,1,2487
247.56563,0.121875,74,57,0,1,2488
247.66458,0.10104167,60,50,0,1,2489
247.67397,0.134375,72,62,0,1,2490
247.79688,0.108333334,71,64,0,1,2491
247.81041,0.10520833,59,54,0,1,2492
247.92084,0.08541667,69,61,0,1,2493
247.9375,0.075,60,52,0,1,2494
248.05624,0.098958336,67,58,0,1,2495
248.08125,0.19583334,52,38,0,1,2496
248.19792,0.067708336,60,49,0,1,2497
248.34584,0.083333336,59,45,0,1,2498
248.46458,0.053125,60,55,0,1,2499
248.60728,0.08541667,67,66,0,1,2500
248.60938,0.061458334,48,50,0,1,2501
248.72604,0.098958336,60,57,0,1,2502
248.72812,0.10520833,64,65,0,1,2503
248.84688,0.092708334,67,66,0,1,2504
248.85312,0.119791664,59,52,0,1,2505
248.95625,0.092708334,64,74,0,1,2506
248.97917,0.08125,60,58,0,1,2507
249.10417,0.19375,69,73,0,1,2508
249.1323,0.121875,53,49,0,1,2509
249.2375,0.075,60,54,0,1,2510
249.35625,0.08541667,59,59,0,1,2511
249.51353,0.061458334,60,51,0,1,2512
249.53854,0.114583336,71,66,0,1,2513
249.65208,0.16979167,53,56,0,1,2514
249.66354,0.15416667,74,75,0,1,2515
249.76979,0.072916664,60,47,0,1,2516
249.78125,0.16041666,72,76,0,1,2517
249.88959,0.071875,59,52,0,1,2518
249.89583,0.13333334,71,75,0,1,2519
250.0125,0.07604167,60,56,0,1,2520
250.02396,0.08958333,69,78,0,1,2521
250.14896,0.19583334,52,61,0,1,2522
250.15105,0.12916666,67,77,0,1,2523
250.28334,0.13958333,72,75,0,1,2524
250.41354,0.18645833,76,87,0,1,2525
250.54375,0.1625,74,85,0,1,2526
250.6625,0.11770833,72,84,0,1,2527
250.78125,0.10520833,71,81,0,1,2528
250.90521,0.07395833,69,80,0,1,2529
250.92917,0.21770833,61,55,0,1,2530
251.0375,0.041666668,67,79,0,1,2531
251.16667,0.06979167,67,89,0,1,2532
251.18437,0.153125,62,63,0,1,2533
251.29271,0.072916664,66,78,0,1,2534
251.42188,0.060416665,74,77,0,1,2535
251.55833,0.036458332,72,73,0,1,2536
251.68437,0.032291666,71,70,0,1,2537
251.79167,0.046875,69,78,0,1,2538
251.91771,0.05625,67,76,0,1,2539
251.93646,0.22708334,59,62,0,1,2540
252.04478,0.047916666,65,84,0,1,2541
252.17397,0.06875,65,89,0,1,2542
252.1802,0.20625,60,69,0,1,2543
252.3052,0.06666667,64,77,0,1,2544
252.4323,0.159375,72,80,0,1,2545
252.56459,0.13020833,71,72,0,1,2546
252.6875,0.110416666,69,70,0,1,2547
252.80208,0.061458334,67,73,0,1,2548
252.93437,0.058333334,65,69,0,1,2549
252.94792,0.0375,57,61,0,1,2550
253.0625,0.057291668,64,67,0,1,2551
253.20312,0.65833336,41,54,0,1,2552
253.20522,0.28020832,62,65,0,1,2553
253.33333,0.48645833,45,64,0,1,2554
253.46875,0.61354166,50,65,0,1,2555
253.58855,0.540625,53,62,0,1,2556
253.7448,0.08020833,62,69,0,1,2557
253.87813,0.079166666,65,69,0,1,2558
254.00104,0.08020833,69,74,0,1,2559
254.13542,0.044791665,74,76,0,1,2560
254.27292,0.046875,43,53,0,1,2561
254.28125,0.051041666,41,45,0,1,2562
254.37291,0.088541664,47,73,0,1,2563
254.5073,0.05,52,78,0,1,2564
254.62917,0.038541667,55,78,0,1,2565
254.76353,0.055208333,64,76,0,1,2566
254.89062,0.061458334,67,76,0,1,2567
255.01042,0.053125,71,78,0,1,2568
255.13333,0.044791665,76,85,0,1,2569
255.26459,0.6302083,45,82,0,1,2570
255.39062,0.49895832,48,77,0,1,2571
255.525,0.41979167,53,80,0,1,2572
255.64272,0.5239583,57,74,0,1,2573
255.78438,0.07395833,65,82,0,1,2574
255.91458,0.08645833,69,82,0,1,2575
256.04062,0.075,72,82,0,1,2576
256.1729,0.04375,77,87,0,1,2577
256.29062,0.1,47,72,0,1,2578
256.40625,0.108333334,50,74,0,1,2579
256.5375,0.071875,55,79,0,1,2580
256.6573,0.054166667,59,78,0,1,2581
256.80728,0.08541667,86,83,0,1,2582
256.92606,0.077083334,83,72,0,1,2583
257.04688,0.052083332,79,72,0,1,2584
257.1677,0.029166667,77,70,0,1,2585
257.29376,0.08020833,74,71,0,1,2586
257.4125,0.08020833,71,71,0,1,2587
257.5448,0.06979167,67,73,0,1,2588
257.675,0.039583333,65,63,0,1,2589
257.8,0.042708334,62,57,0,1,2590
257.92606,0.09791667,59,62,0,1,2591
258.06354,0.10729167,55,59,0,1,2592
258.18854,0.044791665,53,62,0,1,2593
258.3125,0.045833334,72,65,0,1,2594
258.3323,0.35208333,64,59,0,1,2595
258.40314,0.060416665,74,57,0,1,2596
258.48438,0.041666668,72,64,0,1,2597
258.54895,0.07604167,71,61,0,1,2598
258.64374,0.20833333,55,44,0,1,2599
258.65103,0.06875,72,68,0,1,2600
258.75,0.08125,76,60,0,1,2601
258.87082,0.07395833,74,67,0,1,2602
258.8896,0.225,59,52,0,1,2603
258.96564,0.079166666,76,67,0,1,2604
259.0427,0.057291668,74,75,0,1,2605
259.11563,0.057291668,72,56,0,1,2606
259.13644,0.225,55,49,0,1,2607
259.19583,0.07395833,74,73,0,1,2608
259.29062,0.067708336,77,73,0,1,2609
259.39166,0.079166666,76,72,0,1,2610
259.40314,0.23541667,60,57,0,1,2611
259.47708,0.07083333,77,76,0,1,2612
259.55106,0.061458334,76,75,0,1,2613
259.6177,0.088541664,74,65,0,1,2614
259.6729,0.16041666,55,66,0,1,2615
259.70312,0.08541667,76,78,0,1,2616
259.8021,0.06875,79,82,0,1,2617
259.9125,0.077083334,77,79,0,1,2618
259.92188,0.21041666,62,71,0,1,2619
259.99167,0.079166666,79,80,0,1,2620
260.0729,0.058333334,77,75,0,1,2621
260.12918,0.079166666,76,69,0,1,2622
260.18124,0.190625,55,53,0,1,2623
260.22186,0.08645833,77,78,0,1,2624
260.30832,0.05,81,81,0,1,2625
260.4344,0.08125,64,54,0,1,2626
260.45938,0.08229167,79,72,0,1,2627
260.5823,0.11145833,84,72,0,1,2628
260.69894,0.12291667,88,84,0,1,2629
260.82187,0.1,83,82,0,1,2630
260.94272,0.090625,84,75,0,1,2631
261.04688,0.0625,79,75,0,1,2632
261.17606,0.052083332,62,55,0,1,2633
261.1802,0.065625,53,54,0,1,2634
261.20312,0.08541667,81,84,0,1,2635
261.3375,0.06458333,77,74,0,1,2636
261.4573,0.28854167,60,51,0,1,2637
261.46875,0.58958334,55,50,0,1,2638
261.4875,0.079166666,76,72,0,1,2639
261.55728,0.092708334,77,72,0,1,2640
261.67395,0.1125,76,66,0,1,2641
261.8156,0.34375,74,58,0,1,2642
261.86145,0.31041667,59,43,0,1,2643
262.42606,0.15729167,79,55,0,1,2644
262.5771,0.10625,77,55,0,1,2645
262.71564,0.08541667,76,58,0,1,2646
262.84897,0.25416666,74,58,0,1,2647
262.87396,0.28645834,65,43,0,1,2648
263.0177,0.045833334,72,38,0,1,2649
263.13333,0.042708334,71,50,0,1,2650
263.24792,0.08541667,72,57,0,1,2651
263.40936,0.26979166,67,55,0,1,2652
263.41458,0.042708334,76,69,0,1,2653
263.50208,0.032291666,77,50,0,1,2654
263.57394,0.045833334,72,47,0,1,2655
263.57605,0.039583333,76,69,0,1,2656
263.65625,0.06875,77,64,0,1,2657
263.72812,0.07395833,71,41,0,1,2658
263.72916,0.0625,76,64,0,1,2659
263.81668,0.0625,74,64,0,1,2660
263.84686,0.0875,72,48,0,1,2661
263.90936,0.06458333,76,57,0,1,2662
264.0104,0.675,77,57,0,1,2663
264.02814,0.123958334,69,48,0,1,2664
264.17606,0.0625,72,53,0,1,2665
264.2948,0.09375,71,50,0,1,2666
264.42395,0.05625,72,53,0,1,2667
264.55728,0.10104167,67,52,0,1,2668
264.6844,0.045833334,72,38,0,1,2669
264.7948,0.051041666,71,45,0,1,2670
264.8021,0.17083333,76,57,0,1,2671
264.9125,0.07083333,72,51,0,1,2672
264.97397,0.04375,76,1,0,1,2673
265.0448,0.045833334,74,64,0,1,2674
265.06458,0.084375,65,53,0,1,2675
265.17606,0.088541664,72,53,0,1,2676
265.3021,0.07083333,71,57,0,1,2677
265.30832,0.052083332,73,58,0,1,2679
265.30832,0.21979167,74,73,0,1,2678
265.4302,0.06979167,72,55,0,1,2680
265.5427,0.184375,67,59,0,1,2681
265.5552,0.06979167,76,68,0,1,2682
265.6625,0.09791667,72,59,0,1,2683
265.79688,0.07083333,75,65,0,1,2684
265.7979,0.088541664,71,62,0,1,2685
265.80106,0.075,76,78,0,1,2686
265.91876,0.092708334,72,63,0,1,2687
266.06876,0.067708336,69,63,0,1,2688
266.07187,0.058333334,76,81,0,1,2689
266.18854,0.079166666,79,74,0,1,2690
266.19687,0.11770833,72,59,0,1,2691
266.3229,0.5,77,70,0,1,2692
266.32916,0.072916664,71,63,0,1,2693
266.46875,0.08125,72,61,0,1,2694
266.6146,0.175,67,64,0,1,2695
266.7396,0.06979167,72,57,0,1,2696
266.85626,0.04375,76,73,0,1,2697
266.87292,0.054166667,71,55,0,1,2698
266.99792,0.038541667,72,59,0,1,2699
267.1219,0.8625,74,63,0,1,2700
267.12292,0.0875,73,51,0,1,2701
267.39584,0.23333333,69,48,0,1,2702
267.40936,0.16875,65,43,0,1,2703
267.65207,0.25729167,68,50,0,1,2704
267.66458,0.30208334,64,45,0,1,2705
267.93854,0.12708333,69,55,0,1,2706
267.94583,0.16041666,65,52,0,1,2707
268.20834,0.041666668,80,87,0,1,2708
268.26562,0.98020834,81,73,0,1,2709
268.46875,0.17395833,65,59,0,1,2710
268.47186,0.203125,69,55,0,1,2711
268.7469,0.20208333,68,48,0,1,2712
268.75626,0.284375,64,42,0,1,2713
269.02707,0.06458333,65,54,0,1,2714
269.03125,0.038541667,69,47,0,1,2715
269.29895,0.052083332,83,56,0,1,2716
269.30106,0.765625,84,63,0,1,2717
269.5698,0.15520833,65,48,0,1,2718
269.57812,0.290625,69,41,0,1,2719
269.83646,0.31666666,68,51,0,1,2720
269.8427,0.27604166,64,41,0,1,2721
270.09897,0.039583333,69,58,0,1,2722
270.1104,0.057291668,65,39,0,1,2723
270.36145,0.033333335,80,86,0,1,2724
270.3646,0.033333335,81,83,0,1,2725
270.64584,0.052083332,84,73,0,1,2726
270.65207,0.039583333,83,65,0,1,2727
270.89688,0.0375,76,59,0,1,2728
270.89896,0.033333335,77,63,0,1,2729
271.15103,0.04375,80,69,0,1,2730
271.15417,0.038541667,81,69,0,1,2731
271.4271,0.034375,73,68,0,1,2732
271.42917,0.032291666,74,61,0,1,2733
271.68854,0.035416666,77,70,0,1,2734
271.69168,0.034375,76,62,0,1,2735
271.9375,0.044791665,68,59,0,1,2736
271.93854,0.0375,69,61,0,1,2737
272.21146,0.036458332,71,64,0,1,2738
272.21353,0.032291666,72,71,0,1,2739
272.44376,0.039583333,67,72,0,1,2740
272.47083,0.15208334,55,64,0,1,2741
272.51874,0.0625,72,81,0,1,2742
272.57083,0.06875,76,74,0,1,2743
272.59686,0.057291668,74,23,0,1,2744
272.62918,0.07604167,64,55,0,1,2745
272.67606,0.846875,79,77,0,1,2746
272.7802,0.06458333,60,55,0,1,2747
272.91147,0.05,64,57,0,1,2748
273.05728,0.215625,55,52,0,1,2749
273.07187,0.16666667,77,71,0,1,2750
273.19272,0.11875,76,74,0,1,2751
273.2073,0.054166667,64,51,0,1,2752
273.31146,0.083333336,60,61,0,1,2753
273.3125,0.09166667,74,78,0,1,2754
273.42188,0.134375,72,79,0,1,2755
273.42813,0.1125,64,48,0,1,2756
273.61145,0.190625,55,46,0,1,2757
273.6177,0.083333336,74,65,0,1,2758
273.73126,0.044791665,76,62,0,1,2759
273.77292,0.058333334,65,38,0,1,2760
273.83124,0.047916666,74,66,0,1,2761
273.8875,0.048958335,59,36,0,1,2762
273.9125,0.032291666,76,54,0,1,2763
273.97708,0.075,74,68,0,1,2764
273.9875,0.07604167,65,44,0,1,2765
274.0552,0.065625,76,68,0,1,2766
274.1354,0.16875,55,59,0,1,2767
274.14166,0.072916664,74,68,0,1,2768
274.22083,0.042708334,76,59,0,1,2769
274.26144,0.063541666,65,53,0,1,2770
274.3052,0.038541667,74,54,0,1,2771
274.34686,0.061458334,76,73,0,1,2772
274.37082,0.051041666,59,59,0,1,2773
274.43646,0.038541667,74,65,0,1,2774
274.48645,0.088541664,72,66,0,1,2775
274.5146,0.05625,65,50,0,1,2776
274.56668,0.07083333,74,65,0,1,2777
274.70105,0.06666667,72,66,0,1,2778
274.72186,0.078125,60,62,0,1,2779
274.8323,0.055208333,67,54,0,1,2780
274.94687,0.04375,64,52,0,1,2781
274.9479,0.053125,84,74,0,1,2782
275.0729,0.039583333,67,49,0,1,2783
275.08438,0.034375,84,76,0,1,2784
275.20624,0.08958333,84,84,0,1,2785
275.2125,0.048958335,60,62,0,1,2786
275.31876,0.108333334,79,71,0,1,2787
275.45,0.05625,76,72,0,1,2788
275.575,0.063541666,72,68,0,1,2789
275.69687,0.190625,59,56,0,1,2790
275.70312,0.036458332,74,63,0,1,2791
275.82394,0.054166667,67,61,0,1,2792
275.96353,0.045833334,62,64,0,1,2793
275.96564,0.045833334,86,78,0,1,2794
276.09064,0.028125,86,73,0,1,2795
276.09897,0.034375,67,50,0,1,2796
276.20938,0.110416666,86,88,0,1,2797
276.22812,0.041666668,59,59,0,1,2798
276.33334,0.098958336,83,81,0,1,2799
276.46875,0.061458334,79,74,0,1,2800
276.5875,0.07604167,74,74,0,1,2801
276.7125,0.05625,60,55,0,1,2802
276.72293,0.030208332,76,71,0,1,2803
276.84064,0.04375,67,58,0,1,2804
276.975,0.040625,64,63,0,1,2805
276.98126,0.052083332,88,78,0,1,2806
277.1052,0.046875,67,61,0,1,2807
277.1104,0.0375,88,78,0,1,2808
277.2354,0.10208333,88,94,0,1,2809
277.25418,0.0375,60,60,0,1,2810
277.35626,0.077083334,84,77,0,1,2811
277.4875,0.0375,79,64,0,1,2812
277.60312,0.06666667,76,72,0,1,2813
277.7302,0.22604166,57,66,0,1,2814
277.7354,0.078125,80,80,0,1,2815
277.73645,0.15729167,53,68,0,1,2816
277.74063,0.18645833,62,67,0,1,2817
277.86667,0.13020833,81,82,0,1,2818
277.99063,0.067708336,77,78,0,1,2819
278.1146,0.06666667,74,72,0,1,2820
278.24167,0.17291667,55,64,0,1,2821
278.24167,0.046875,62,65,0,1,2822
278.2427,0.07083333,76,87,0,1,2823
278.24478,0.040625,65,64,0,1,2824
278.37396,0.078125,77,85,0,1,2825
278.41458,0.29791668,55,2,0,1,2826
278.4927,0.06666667,74,72,0,1,2827
278.60626,0.058333334,71,73,0,1,2828
278.7354,0.10208333,72,88,0,1,2829
278.74167,0.042708334,64,61,0,1,2830
278.74374,0.038541667,60,60,0,1,2831
278.86874,0.077083334,71,85,0,1,2832
278.99063,0.1,72,79,0,1,2833
279.1104,0.06458333,71,81,0,1,2834
279.22293,0.045833334,36,70,0,1,2835
279.24167,0.1,72,89,0,1,2836
279.3427,0.072916664,48,70,0,1,2837
279.36356,0.083333336,67,75,0,1,2838
279.4802,0.047916666,47,68,0,1,2839
279.48645,0.058333334,64,74,0,1,2840
279.60834,0.045833334,48,66,0,1,2842
279.60834,0.041666668,60,73,0,1,2841
279.73438,0.034375,47,74,0,1,2843
279.73645,0.05,62,82,0,1,2844
279.88022,0.134375,73,79,0,1,2845
280.0031,0.09166667,74,85,0,1,2846
280.13022,0.096875,73,87,0,1,2847
280.23645,0.059375,47,73,0,1,2848
280.25104,0.1125,74,85,0,1,2849
280.37396,0.06875,59,65,0,1,2850
280.37918,0.09166667,71,76,0,1,2851
280.50418,0.053125,57,70,0,1,2852
280.5073,0.058333334,67,72,0,1,2853
280.62604,0.044791665,62,75,0,1,2854
280.62918,0.05625,59,69,0,1,2855
280.75626,0.033333335,60,74,0,1,2856
280.7698,0.05,64,78,0,1,2857
280.8854,0.14895834,75,87,0,1,2858
281.01144,0.12708333,76,87,0,1,2859
281.13437,0.094791666,75,87,0,1,2860
281.26144,0.1,76,92,0,1,2861
281.2677,0.055208333,36,74,0,1,2862
281.39166,0.084375,72,78,0,1,2863
281.39374,0.051041666,48,72,0,1,2864
281.5125,0.05625,67,75,0,1,2865
281.52188,0.08229167,47,74,0,1,2866
281.63126,0.038541667,48,63,0,1,2867
281.64688,0.06666667,64,74,0,1,2868
281.6979,0.21979167,41,77,0,1,2869
281.72293,0.19895834,45,72,0,1,2870
281.78125,0.153125,68,82,0,1,2871
281.79895,0.108333334,50,77,0,1,2872
281.91666,0.134375,69,80,0,1,2873
282.03436,0.1,65,77,0,1,2874
282.15103,0.06979167,62,70,0,1,2875
282.21042,0.5416667,43,70,0,1,2876
282.26666,0.16145833,50,75,0,1,2877
282.27396,0.14895834,64,83,0,1,2878
282.30417,0.06979167,53,80,0,1,2879
282.40417,0.125,65,85,0,1,2880
282.525,0.14270833,62,80,0,1,2881
282.64688,0.079166666,59,76,0,1,2882
282.75626,0.16145833,52,76,0,1,2883
282.76355,0.17604166,48,72,0,1,2884
282.7698,0.032291666,60,77,0,1,2885
282.95312,0.08229167,72,71,0,1,2886
283.10312,0.11666667,76,67,0,1,2887
283.25,0.036458332,74,62,0,1,2888
283.36356,0.035416666,72,63,0,1,2889
283.4823,0.140625,71,75,0,1,2890
283.6,0.11145833,69,78,0,1,2891
283.71875,0.067708336,67,80,0,1,2892
283.83853,0.077083334,65,84,0,1,2893
283.96667,0.13125,64,83,0,1,2894
284.0927,0.06875,62,84,0,1,2895
284.21042,0.075,60,80,0,1,2896
284.33438,0.12083333,59,80,0,1,2897
284.45624,0.060416665,57,81,0,1,2898
284.5823,0.079166666,55,77,0,1,2899
284.71353,0.063541666,54,70,0,1,2900
284.8625,1.2916666,53,71,0,1,2901
285.46564,0.15208334,38,33,0,1,2902
285.46667,0.13645834,50,35,0,1,2903
286.0198,0.090625,47,42,0,1,2904
286.04584,0.079166666,35,31,0,1,2905
286.17606,0.10520833,55,56,0,1,2906
286.29688,0.11770833,57,56,0,1,2907
286.4125,0.08229167,55,71,0,1,2908
286.52292,0.14270833,59,76,0,1,2909
286.52917,0.11145833,31,57,0,1,2910
286.54062,0.43229166,43,49,0,1,2911
286.65207,0.09791667,57,72,0,1,2912
286.7573,0.06666667,55,72,0,1,2913
286.87604,0.06458333,53,71,0,1,2914
287.02707,0.6041667,50,81,0,1,2915
287.0302,0.038541667,36,59,0,1,2916
287.03125,0.934375,53,78,0,1,2917
287.15314,0.061458334,48,67,0,1,2918
287.28436,0.07604167,47,74,0,1,2919
287.41147,0.051041666,48,70,0,1,2920
287.5448,0.071875,47,68,0,1,2921
287.6625,0.119791664,48,66,0,1,2922
287.79895,0.051041666,47,58,0,1,2923
287.91354,0.042708334,48,69,0,1,2924
288.0302,0.035416666,36,66,0,1,2925
288.03543,0.030208332,52,74,0,1,2926
288.05624,0.040625,48,53,0,1,2927
288.2125,0.09375,60,62,0,1,2928
288.32812,0.08125,59,68,0,1,2929
288.45938,0.047916666,60,67,0,1,2930
288.58853,0.035416666,55,55,0,1,2931
288.73438,0.083333336,67,64,0,1,2932
288.84375,0.08125,66,66,0,1,2933
288.97812,0.041666668,67,68,0,1,2934
289.10626,0.035416666,64,70,0,1,2935
289.24063,0.094791666,72,69,0,1,2936
289.3646,0.077083334,71,62,0,1,2937
289.48645,0.038541667,72,60,0,1,2938
289.63022,0.038541667,67,50,0,1,2939
289.76144,0.06875,76,59,0,1,2940
289.87918,0.057291668,74,60,0,1,2941
289.99063,0.044791665,76,66,0,1,2942
290.14062,0.034375,72,64,0,1,2943
290.2625,0.11354167,72,65,0,1,2944
290.3854,0.084375,71,79,0,1,2945
290.51874,0.125,72,87,0,1,2946
290.65207,0.134375,76,89,0,1,2947
290.7802,0.109375,72,87,0,1,2948
290.9177,0.16354166,79,88,0,1,2949
291.05106,0.096875,76,89,0,1,2950
291.18854,0.071875,84,93,0,1,2951
291.19583,0.048958335,48,69,0,1,2952
291.33957,0.04375,60,70,0,1,2953
291.48126,0.054166667,64,76,0,1,2954
291.62396,0.06979167,60,78,0,1,2955
291.77188,0.340625,79,87,0,1,2956
291.77292,0.346875,84,93,0,1,2957
291.775,0.35729167,76,82,0,1,2958
291.7802,0.0375,55,67,0,1,2959
291.9344,0.039583333,60,70,0,1,2960
292.0875,0.060416665,52,80,0,1,2961
292.2604,0.03125,55,78,0,1,2962
292.48438,0.058333334,84,97,0,1,2963
292.4875,0.041666668,79,88,0,1,2964
292.49063,0.039583333,48,73,0,1,2966
292.49063,0.025,76,81,0,1,2965
